<?xml version="1.0" encoding="UTF-8" standalone="no"?>
<svg
   xmlns:dc="http://purl.org/dc/elements/1.1/"
   xmlns:cc="http://creativecommons.org/ns#"
   xmlns:rdf="http://www.w3.org/1999/02/22-rdf-syntax-ns#"
   xmlns:svg="http://www.w3.org/2000/svg"
   xmlns="http://www.w3.org/2000/svg"
   xmlns:sodipodi="http://sodipodi.sourceforge.net/DTD/sodipodi-0.dtd"
   xmlns:inkscape="http://www.inkscape.org/namespaces/inkscape"
   id="Layer_1"
   data-name="Layer 1"
   viewBox="0 0 733.84003 344.2482"
   version="1.1"
   sodipodi:docname="logo-path.svg"
   width="733.84003"
   height="344.2482"
   inkscape:version="0.92.5 (2060ec1f9f, 2020-04-08)"
   inkscape:export-filename="/home/walber/crias-conscientes/src/assets/logo.png"
   inkscape:export-xdpi="96"
   inkscape:export-ydpi="96">
  <metadata
     id="metadata211">
    <rdf:RDF>
      <cc:Work
         rdf:about="">
        <dc:format>image/svg+xml</dc:format>
        <dc:type
           rdf:resource="http://purl.org/dc/dcmitype/StillImage" />
        <dc:title />
      </cc:Work>
    </rdf:RDF>
  </metadata>
  <sodipodi:namedview
     pagecolor="#ffffff"
     bordercolor="#666666"
     borderopacity="1"
     objecttolerance="10"
     gridtolerance="10"
     guidetolerance="10"
     inkscape:pageopacity="0"
     inkscape:pageshadow="2"
     inkscape:window-width="1294"
     inkscape:window-height="704"
     id="namedview209"
     showgrid="false"
     fit-margin-top="0"
     fit-margin-left="0"
     fit-margin-right="0"
     fit-margin-bottom="0"
     inkscape:zoom="0.59"
     inkscape:cx="223.61226"
     inkscape:cy="104.9291"
     inkscape:window-x="72"
     inkscape:window-y="27"
     inkscape:window-maximized="1"
     inkscape:current-layer="Layer_1" />
  <defs
     id="defs4">
    <style
       id="style2">.cls-1,.cls-6{fill:#daff15;}.cls-1,.cls-13,.cls-14,.cls-16,.cls-17,.cls-2,.cls-3,.cls-4,.cls-5,.cls-6,.cls-7{stroke:#000;}.cls-1,.cls-13,.cls-14,.cls-16,.cls-17,.cls-18,.cls-2,.cls-3,.cls-4,.cls-5,.cls-6,.cls-7{stroke-miterlimit:10;}.cls-1{opacity:0.35;}.cls-2{fill:#dd2671;}.cls-3{fill:#dd2600;}.cls-4{fill:#33d36c;}.cls-5{fill:#4a6ed3;}.cls-7{font-size:77.2px;stroke-width:2px;font-family:FriendlySchoolmates, Friendly Schoolmates;}.cls-15,.cls-17,.cls-19,.cls-7{fill:#17a7c9;}.cls-8{letter-spacing:-0.02em;}.cls-9{letter-spacing:-0.01em;}.cls-10{letter-spacing:0em;}.cls-11{letter-spacing:-0.04em;}.cls-12{letter-spacing:0.01em;}.cls-13{fill:#e9a400;}.cls-14{fill:#e87089;}.cls-15,.cls-17{opacity:0.45;}.cls-16{fill:#e93400;}.cls-18{stroke:#33d36c;}.cls-19{opacity:0.44;}</style>
  </defs>
  <path
     class="cls-2"
     d="m 210.34,35.94 c 0,-1.76 -2,-26.13 -2,-26.13 l 32,-4 -4.69,18.36 21.19,2.36 -2.35,13.53 z"
     id="path8"
     inkscape:connector-curvature="0"
     style="fill:#dd2671;stroke:#000000;stroke-miterlimit:10" />
  <path
     style=""
     d="m 217.39999,21.230013 h 8.83 v 8.83 h -8.83 z"
     id="rect10" />
  <path
     transform="translate(-38.16,-269.69)"
     style="fill:#dd2600;stroke:#000000;stroke-miterlimit:10"
     d="m 246.5,279.5 1.94,24.97 -48.94,-5.97 0.69,-9.01 0.31,-3.99 z"
     id="polygon12" />
  <path
     transform="translate(-38.16,-269.69)"
     style=""
     d="m 247,290 -47.5,-0.5 1,-4 46,-6 z"
     id="polygon14" />
  <path
     style=""
     d="m 169.84,22.309999 h 7 v 2 h -7 z"
     id="rect16" />
  <path
     style=""
     d="m 192.84,27.309999 h 2 v 5 h -2 z"
     id="rect18" />
  <path
     transform="translate(-38.16,-269.69)"
     style="fill:#33d36c;stroke:#000000;stroke-miterlimit:10"
     d="m 274.03,293 4.97,-17 16,12 v 9 z"
     id="polygon20" />
  <path
     style=""
     d="m 244.34,14.81 h 2 v 5 h -2 z"
     id="rect22" />
  <path
     style=""
     d="m 245.34,42.810001 h 3 v 3 h -3 z"
     id="rect24" />
  <path
     style=""
     d="m 468.34,12.81 h 7 v 2 h -7 z"
     id="rect26" />
  <path
     style=""
     d="m 502.84,14.31 h 4 v 6 h -4 z"
     id="rect28" />
  <path
     style=""
     d="m 457.84,29.309999 h 6 v 6 h -6 z"
     id="rect30" />
  <path
     style=""
     d="m 642.34003,142.81 h 12 v 4 h -12 z"
     id="rect32" />
  <path
     transform="translate(-38.16,-269.69)"
     style="fill:#dd2600;stroke:#000000;stroke-miterlimit:10"
     d="M 641.5,496.5 693,462 649.89,439 618,451 l 15,39 z"
     id="polygon34" />
  <path
     d="m 582.98,169.31 c 18.37,-12.78 30.35,-21.56 30.35,-21.56 l 27.15,21.56 z"
     id="path36"
     inkscape:connector-curvature="0" />
  <path
     transform="translate(-38.16,-269.69)"
     style="fill:#4a6ed3;stroke:#000000;stroke-miterlimit:10"
     d="m 626.5,466.5 9,-29 23,-1 6,39 z"
     id="polygon38" />
  <path
     transform="translate(-38.16,-269.69)"
     style=""
     d="m 652,472 -10.86,-1.81 v -27 h 11 z"
     id="polygon40" />
  <path
     class="cls-6"
     d="m 623.21,195.2 10.13,-34.39 39,5 -26,25.46 a 7.42,7.42 0 0 1 -5.31,2.75 z"
     id="path42"
     inkscape:connector-curvature="0"
     style="fill:#daff15;stroke:#000000;stroke-miterlimit:10" />
  <path
     transform="translate(-38.16,-269.69)"
     style=""
     d="M 665.87,435 H 710 l 9,-11 -51.32,-3.43 z"
     id="polygon44" />
  <path
     transform="translate(-38.16,-269.69)"
     style=""
     d="m 679,464 -10,1 8,-16 9,1 z"
     id="polygon46" />
  <path
     style=""
     d="m 80.839996,171.31 h 5 v 6 h -5 z"
     id="rect48" />
  <path
     d="M 100.37,0.39 101.29,0 h 0.85 l 0.46,0.84 0.38,0.85 0.46,0.46 0.47,0.84 0.45,0.47 0.39,0.45 0.46,0.85 0.46,0.46 0.38,0.38 0.46,0.46 0.47,0.92 0.38,0.39 0.46,0.46 0.46,0.46 0.46,0.84 0.38,0.46 0.46,0.39 0.39,0.92 0.46,0.46 0.46,0.38 0.46,0.46 0.38,0.85 0.46,0.46 0.46,0.46 0.39,0.84 0.46,0.46 0.46,0.39 0.38,0.46 0.46,0.84 0.46,0.46 0.38,0.46 0.47,0.38 0.46,0.93 0.46,0.46 0.38,0.38 0.46,0.84 0.46,0.46 0.38,0.46 0.46,0.46 0.47,0.85 0.38,0.46 0.46,0.46 0.46,0.84 0.46,0.39 0.38,0.46 0.46,0.46 0.39,0.84 0.46,0.46 0.46,0.46 0.46,0.46 0.38,0.85 0.46,0.38 0.46,0.46 0.46,0.92 0.39,0.39 0.46,0.46 0.38,0.46 0.46,0.84 0.46,0.46 0.46,0.38 0.39,0.93 0.46,0.38 0.46,0.46 0.38,0.46 0.46,0.84 0.46,0.47 0.38,0.38 0.47,0.46 0.46,0.92 0.38,0.39 0.46,0.45 0.46,0.85 0.46,0.46 0.38,0.46 0.47,0.38 0.38,0.92 0.46,0.47 0.46,0.38 0.46,0.46 0.39,0.84 0.45,0.46 0.47,0.46 0.45,0.85 0.39,0.46 0.46,0.46 0.38,0.38 0.47,0.85 0.45,0.46 0.47,0.46 0.38,0.84 0.46,0.46 0.46,0.85 0.46,0.92 0.38,1.3 0.46,0.85 0.39,0.92 0.46,0.84 0.46,1.3 0.46,0.85 0.38,0.92 0.46,1.3 0.46,0.85 0.39,0.92 0.46,0.84 0.46,1.31 0.38,0.84 0.46,0.92 0.46,1.31 0.39,0.84 0.46,0.92 0.46,0.84 0.46,1.31 0.38,0.84 0.46,0.92 0.39,1.31 0.46,0.84 0.46,0.85 0.46,0.92 0.38,1.3 0.46,0.92 0.46,0.85 0.46,1.3 0.39,0.85 0.46,0.92 0.38,0.84 0.46,1.31 0.46,0.92 0.46,0.84 0.38,1.31 0.46,0.84 0.47,0.92 0.46,0.85 0.38,1.3 0.46,0.84 0.38,0.93 0.46,0.84 0.46,1.3 0.46,0.92 0.39,0.85 0.46,1.3 0.46,0.85 0.38,0.92 0.46,0.84 0.46,1.38 0.39,0.85 0.46,0.84 0.46,1.3 0.38,0.85 0.46,0.85 0.46,0.92 0.46,1.3 0.39,0.92 0.46,0.85 0.38,1.3 0.46,0.84 0.46,0.93 0.46,0.84 0.39,1.3 0.46,0.85 0.46,0.92 v 0.84 l -0.46,1.31 -0.46,1.3 -0.85,0.46 -0.92,0.46 -0.84,0.46 -0.85,0.39 -0.92,0.46 -0.84,0.38 -0.85,0.46 -0.92,0.46 -0.84,0.46 -0.46,0.39 -0.85,0.46 -0.92,0.46 -0.84,0.38 -0.84,0.46 -0.93,0.46 -0.84,0.38 -0.92,0.46 -0.84,0.47 -0.85,0.46 -0.46,0.38 -0.84,0.46 -0.92,0.38 -0.85,0.46 -0.84,0.46 -0.92,0.46 -0.85,0.39 -0.92,0.46 -0.84,0.46 -0.85,0.38 -0.92,0.46 -0.38,0.46 -0.46,0.39 0.46,0.46 0.38,0.46 0.92,0.38 0.39,0.46 0.46,0.46 0.84,0.46 0.46,0.39 0.46,0.46 0.85,0.38 0.46,0.46 0.84,0.46 0.46,0.46 0.39,0.39 0.92,0.45 0.46,0.47 0.38,0.46 0.92,0.38 0.46,0.46 0.39,0.38 0.84,0.47 0.46,0.45 0.46,0.47 0.84,0.38 0.46,0.46 0.47,0.46 0.84,0.46 0.46,0.39 0.38,0.45 0.92,0.39 0.46,0.46 0.39,0.46 0.92,0.46 0.38,0.38 0.46,0.47 0.46,0.45 0.85,0.39 0.46,0.46 0.38,0.46 0.92,0.38 0.46,0.46 0.39,0.47 0.84,0.38 0.46,0.46 0.46,0.46 0.85,0.38 0.46,0.46 0.46,0.46 0.46,0.39 0.84,0.46 0.38,0.46 0.47,0.46 0.92,0.38 0.38,0.46 0.46,0.46 0.92,0.39 0.39,0.46 0.45,0.46 0.39,0.38 0.92,0.46 0.46,0.46 0.38,0.46 0.92,0.39 0.39,0.46 0.46,0.38 0.84,0.46 0.46,0.46 0.47,1.31 v 1.76 l -0.47,0.84 -0.46,0.92 -0.38,0.85 -0.46,0.84 -0.46,0.46 -0.39,0.85 -0.45,0.92 -0.47,0.84 -0.38,0.92 -0.46,0.85 -0.46,0.84 -0.46,0.46 -0.39,0.84 -0.45,0.93 -0.39,0.84 -0.46,0.85 -0.46,0.92 -0.46,0.46 -0.38,0.84 -0.47,0.85 -0.45,0.92 -0.47,0.84 -0.38,0.92 -0.46,0.84 -0.38,0.39 -0.46,0.92 -0.46,0.84 -0.46,0.92 -0.39,0.85 -0.46,0.84 -0.46,0.46 -0.46,0.85 -0.38,0.92 -0.46,0.84 -0.39,0.85 -0.46,0.92 -0.46,0.46 -0.46,0.84 -0.38,0.92 -0.46,0.85 -0.46,0.84 -0.39,0.92 -0.46,0.85 -0.46,0.46 -0.38,0.84 -0.46,0.84 -0.46,0.89 -0.39,0.85 -0.46,0.92 -0.46,0.38 -0.46,0.92 -0.38,0.85 -0.46,0.84 -0.38,0.92 -0.46,0.85 -0.47,0.84 -0.46,0.46 -0.38,0.92 -0.46,0.85 -0.46,0.84 -0.46,0.92 -0.38,0.85 -0.46,0.46 -0.39,0.84 -0.46,0.85 -0.46,0.92 -0.46,0.84 -0.38,0.92 -0.46,0.84 -0.46,0.47 -0.46,0.84 -0.39,0.92 -0.46,0.84 -0.38,0.85 -0.46,0.92 -0.46,0.38 -0.46,0.92 -0.39,0.85 -0.46,0.92 -0.46,0.84 -0.38,0.85 -0.46,0.46 -0.46,0.84 -0.39,0.92 -0.46,0.85 -0.46,0.84 -0.38,0.92 -0.46,0.85 -0.46,0.46 -0.46,0.84 -0.39,0.92 -0.46,0.84 -0.38,0.93 -0.46,0.84 -0.46,0.38 -0.46,0.92 -0.38,0.85 -0.47,0.92 -0.45,0.84 -0.47,0.85 -0.38,0.92 -0.46,0.38 -0.39,0.92 -0.45,0.46 -0.47,0.39 -0.84,0.46 H 96 l -3.45,-0.46 -3.53,-0.39 -3.46,-0.46 -3.53,-0.46 -3.07,-0.46 -3.45,-0.38 -3.45,-0.46 -3.53,-0.46 -3.53,-0.39 -3.45,-0.46 -3.54,-0.46 -3.45,-0.38 -3.07,-0.46 -3.53,-0.46 -3.45,-0.39 -3.53,-0.46 -3.45,-0.46 -3.53,-0.46 -3.53,-0.37 -3.38,-0.46 -3.45,-0.38 -3.07,-0.46 -3.53,-0.47 -3.53,-0.46 L 10.05,242.7 6.6,242.31 3.07,241.85 0,241.31 v -2.15 l 0.46,-3.45 0.38,-3.5 0.46,-3.45 0.46,-3.54 0.46,-3.52 0.38,-3.92 0.46,-3.45 0.46,-3.53 0.46,-3.46 0.39,-3.53 0.46,-3.45 0.38,-3.53 0.46,-3.45 0.46,-3.53 0.46,-3.45 0.39,-3.54 0.46,-3.45 0.46,-3.53 0.38,-3.91 0.46,-3.45 0.46,-3.53 0.38,-3.53 0.46,-3.46 0.46,-3.53 0.39,-3.45 0.46,-3.53 0.46,-3.45 0.46,-3.53 0.38,-3.46 0.46,-3.53 0.39,-3.45 0.46,-4 0.46,-3.45 0.46,-3.53 0.38,-3.46 0.46,-3.45 0.46,-3.53 0.46,-3.45 0.39,-3.53 0.46,-3.46 1.3,-0.46 3.46,-0.46 3.07,-0.38 0.92,-0.46 0.38,-1.77 0.46,-1.76 0.46,-1.69 0.38,-1.76 0.47,-1.77 0.45,-1.76 0.47,-1.69 0.38,-1.77 0.46,-1.76 0.31,-1.77 0.46,-2.14 0.46,-1.77 0.46,-1.73 0.38,-1.68 0.46,-1.77 0.46,-1.76 0.46,-1.77 0.39,-1.69 0.46,-1.76 0.38,-1.77 0.46,-2.14 0.46,-1.77 0.46,-1.76 0.39,-1.77 0.46,-1.69 0.46,-1.76 0.46,-1.77 0.38,-1.76 0.46,-1.77 0.38,-1.69 0.47,-1.76 0.47,-2.16 0.46,-1.76 0.38,-1.77 0.46,-1.77 0.46,-1.68 0.38,-1.77 0.46,-1.76 0.47,-0.39 0.84,-0.46 0.84,-0.46 0.92,-0.46 0.85,-0.38 0.84,-0.46 0.92,-0.46 0.85,-0.46 0.92,-0.39 0.84,-0.46 0.85,-0.38 0.92,-0.46 0.84,-0.46 0.92,-0.46 0.85,-0.39 0.84,-0.46 1.38,-0.46 0.85,-0.46 0.84,-0.38 0.92,-0.46 0.84,-0.38 0.85,-0.46 0.92,-0.47 0.85,-0.46 0.84,-0.38 0.92,-0.46 0.84,-0.46 0.92,-0.38 0.85,-0.46 0.84,-0.46 0.93,-0.37 0.85,-0.46 0.92,-0.46 0.84,-0.38 0.85,-0.46 0.92,-0.46 0.84,-0.39 0.92,-0.46 0.85,-0.46 0.84,-0.38 1.3,-0.46 0.93,-0.46 0.84,-0.46 L 81.58,9.63 82.5,9.17 83.35,8.79 84.27,8.33 85.11,7.87 85.96,7.41 86.88,7.02 87.72,6.56 88.64,6.1 89.49,5.64 90.33,5.26 91.25,4.8 92.1,4.42 93.02,3.95 93.86,3.5 94.71,3.03 95.63,2.65 96.47,2.19 97.39,1.73 98.23,1.27 99.54,0.88 Z M 70.45,65.92 q 0.84,0.3 5.67,6.52 4.83,6.22 10.44,13.58 5.59,7.38 10.29,13.47 c 3.11,4.07 4.88,6.1 5.29,6.1 q 1.84,0 15.92,-8.25 14.08,-8.25 18.15,-9.17 l -36.14,-83 Q 96.7,6.02 85.45,11.73 l -15.31,7.79 -7.37,3.69 -7.21,3.6 -3.72,1.7 c -1.18,0.54 -2.4,1.11 -3.68,1.73 -1.28,0.62 -2.44,3.09 -3.46,7.44 q -2.29,9 -4.29,17.61 -2,8.61 -4.3,17.54 c -0.72,2.76 -1.47,5.63 -2.26,8.63 -0.79,3 -1.48,5.94 -2,8.86 a 54.21,54.21 0 0 1 -2.19,8.83 q -0.87,2.07 -8.55,2.07 l -16.96,136.67 91,11.58 55.69,-102.36 -27.62,-20.65 -60.86,64.31 z"
     id="path50"
     inkscape:connector-curvature="0" />
  <path
     d="m 237.35,2.31 3.3,-0.38 h 1.69 l 0.38,0.38 0.85,0.46 0.38,0.39 0.46,0.38 0.39,0.38 0.38,0.39 0.46,0.38 0.38,0.39 0.46,0.46 0.39,0.38 0.38,0.38 0.84,0.39 0.46,0.38 0.39,0.46 0.38,0.31 0.46,0.46 0.38,0.38 0.39,0.39 0.46,0.38 0.38,0.38 0.46,0.46 0.77,0.39 0.46,0.38 0.39,0.39 0.46,0.38 0.38,0.38 0.38,0.39 0.46,0.46 0.39,0.38 0.38,0.38 0.46,0.39 0.39,0.38 0.84,0.38 0.38,0.39 0.46,0.46 0.39,0.38 0.46,0.39 0.38,0.38 0.38,1.61 0.46,1.54 0.39,1.22 0.38,1.16 0.46,1.22 0.38,1.15 0.47,1.23 0.38,1.61 0.38,1.15 0.47,1.15 0.38,1.23 0.46,1.15 0.38,1.61 0.39,1.16 0.46,1.22 0.38,1.16 0.38,1.22 0.46,1.54 0.39,1.23 0.46,1.15 0.38,1.22 0.39,1.15 0.45,1.62 0.39,1.15 0.46,1.22 0.38,1.16 0.39,1.22 0.46,1.16 0.38,1.61 0.39,1.15 0.46,1.23 0.46,1.15 0.38,1.23 0.38,1.53 0.39,1.23 0.46,1.15 0.38,1.15 0.46,1.23 0.39,1.61 0.45,1.15 0.39,1.23 0.38,1.15 0.39,1.23 0.46,1.53 0.46,1.23 0.38,1.15 0.39,1.23 0.46,1.15 0.38,1.23 0.38,1.53 0.46,1.23 0.39,1.15 v 2.38 l -0.39,4 -0.46,3.91 -0.38,3.53 -0.38,4 -0.46,3.53 -0.39,4 -0.38,3.92 -0.46,3.53 -0.46,4 -0.39,3.53 -0.38,4 -0.39,4 -0.45,3.53 v 1.61 l 0.45,1.15 0.39,0.84 0.38,1.15 0.39,0.77 0.46,0.85 0.46,1.15 0.38,0.77 0.39,1.22 0.46,0.77 0.38,0.77 0.38,1.23 0.46,0.76 0.39,1.23 0.46,1.15 0.38,1.61 0.38,2 0.47,1.54 0.38,2 0.46,2 0.38,1.53 0.39,2 0.46,1.62 0.38,1.92 0.38,1.61 0.47,2 0.38,2 0.46,1.53 0.38,2 0.39,1.61 0.46,1.92 0.38,1.61 0.46,2 0.38,1.61 0.39,1.92 0.46,2 0.38,1.61 0.39,1.92 0.46,1.61 0.38,2 0.46,1.61 0.38,1.92 0.39,2 0.46,1.61 0.38,2 0.46,1.53 0.39,2 0.38,1.54 0.46,2 0.39,1.61 0.38,2 0.46,2 0.38,1.53 0.46,2 0.39,1.53 0.38,2 0.46,1.61 0.38,1.92 0.46,2 0.39,1.61 0.38,2 0.46,1.53 0.38,2 0.39,1.61 v 1.61 l -0.77,0.39 -0.46,0.38 -0.38,0.77 h -2.07 l -2.07,-0.39 -2.08,-0.38 -2.07,-0.38 -2.07,-0.54 -2.07,-0.46 -2.08,-0.38 -2,-0.38 -2.53,-0.39 -2.07,-0.38 -2.08,-0.46 -2.07,-0.39 -2,-0.38 -2.1,-0.38 -2.07,-0.39 -2.08,-0.38 -2,-0.39 -2.07,-0.46 -2.08,-0.38 -2.07,-0.39 -2.07,-0.38 -2.45,-0.38 -2.08,-0.38 -2.07,-0.47 -0.84,-0.38 -0.39,-0.38 -0.46,-0.39 -0.38,-0.38 -0.46,-0.46 -0.38,-0.31 -0.39,-0.46 -0.46,-0.38 -0.38,-0.39 -0.46,-0.38 -0.38,-0.38 -0.39,-0.46 -0.46,-0.77 -0.38,-0.38 -0.39,-0.39 -0.46,-0.38 -0.38,-0.39 -0.46,-0.46 -0.39,-0.38 -0.38,-0.38 -0.46,-0.39 -0.38,-0.38 -0.46,-0.39 -0.39,-0.38 -0.38,-0.46 -0.46,-0.38 -0.39,-0.39 -0.38,-0.38 -0.46,-0.77 -0.38,-0.38 -0.46,-0.46 -0.39,-0.39 -0.38,-0.38 -0.46,-0.38 -0.46,-0.39 -0.39,-0.38 -0.38,-0.38 -0.38,-0.46 -0.46,-0.39 -0.39,-0.38 -0.38,-0.38 -0.46,-0.39 -0.46,-0.46 -0.39,-0.38 -0.23,-0.85 0.23,19.5 v 6.33 l -0.38,1.23 -0.38,0.76 -0.46,1.15 -0.46,0.85 -0.39,0.77 -0.38,0.76 -0.46,0.85 -0.39,1.15 -0.38,0.77 -0.46,0.84 -0.38,0.77 -0.46,0.77 -0.39,0.76 -0.38,1.23 -0.46,0.77 -0.38,0.84 -1.23,0.39 -0.49,0.34 -4.15,0.38 -13.58,0.39 -13.28,0.38 h -7.82 l -0.85,-0.38 -0.84,-0.39 -0.38,-0.38 -0.85,-0.38 -0.84,-0.39 -0.77,-0.38 -0.85,-0.46 -0.79,-0.39 -0.38,-0.38 -0.85,-0.38 -0.84,-0.39 -0.84,-0.46 -0.77,-0.31 -0.84,-0.45 -0.47,-0.39 -0.76,-0.38 -0.85,-0.39 -0.84,-0.38 -0.85,-0.46 -0.76,-0.38 -0.39,-0.39 -0.84,-0.38 -0.77,-0.39 -0.84,-0.38 -0.85,-0.38 -0.84,-0.47 -0.38,-0.38 -0.85,-0.38 -0.84,-0.38 -0.77,-0.39 -0.85,-0.38 -0.84,-0.38 -0.38,-0.47 -0.85,-0.38 -0.84,-0.38 -0.84,-0.39 -0.77,-0.38 -0.84,-0.38 -0.39,-0.39 -0.84,-0.46 -0.85,-0.38 -0.84,-0.38 -0.85,-0.39 -0.76,-0.38 -0.46,-0.46 -0.77,-0.39 -0.92,-0.38 -0.77,-0.38 -0.84,-0.39 -0.85,-0.38 -0.38,-0.39 -0.84,-0.46 -0.77,-0.38 -0.92,-0.39 -0.77,-0.38 -0.85,-0.38 -0.45,-0.38 -0.77,-0.47 -0.85,-0.38 -1.68,-0.38 v -2.38 l 0.46,-3.92 0.38,-4.37 0.46,-4.37 0.38,-4.38 0.39,-3.91 0.46,-4.38 0.38,-4.29 0.39,-4.38 0.45,-4 0.39,-4.29 0.46,-4.38 0.38,-4.37 0.39,-3.91 0.46,-4.38 0.46,-4.37 0.38,-4.3 0.39,-4 0.38,-4.38 0.46,-4.37 0.38,-4.3 0.39,-4 0.46,-4.37 0.46,-4.3 0.38,-4.37 0.39,-4 0.38,-4.3 0.46,-4.37 0.46,-4.38 0.38,-3.91 0.39,-4.3 0.46,-4.37 0.38,-4.38 0.38,-2.37 0.46,-0.39 0.39,-0.77 0.46,-0.38 0.38,-0.46 0.39,-0.38 0.46,-0.39 0.38,-0.38 0.46,-0.39 0.39,-0.38 0.38,-0.38 0.46,-0.85 0.38,-0.38 0.39,-0.38 0.46,-0.39 0.38,-0.46 0.46,-18.95 0.38,-22.95 0.34,-22.93 0.46,-6.29 0.38,-0.46 2.92,-0.39 2.91,-0.38 3.23,-0.38 2.84,-0.39 2.91,-0.38 2.92,-0.39 3.3,-0.46 2.84,-0.38 2.91,-0.38 2.92,-0.39 3.3,-0.38 2.92,-0.46 2.91,-0.31 2.84,-0.46 3.3,-0.38 2.92,-0.39 2.91,-0.38 2.84,-0.38 3.38,-0.46 2.84,-0.39 2.91,-0.38 2.92,-0.39 3.3,-0.38 2.84,-0.38 2.91,-0.39 z m 3.3,3.23 -78,10.35 -1.23,69.61 -6.58,7.43 -13.34,135.44 44.59,-1.38 a 17.62,17.62 0 0 1 2.11,-5.22 45.88,45.88 0 0 0 2.65,-5.22 41,41 0 0 0 2.11,-5.71 c 0.12,-0.74 0.19,-3.26 0.19,-7.56 q 0,-7.37 0,-15.24 0,-7.87 -0.5,-14.84 a 134.43,134.43 0 0 1 -0.27,-15 q 0.27,-8.37 0.27,-15.43 0,-7.37 -0.19,-15 -0.19,-7.63 -0.12,-15.69 l 27.63,12.5 q 0,8.68 0.61,17.39 0.61,8.71 0.62,17.46 -0.09,8.28 0.38,17.45 0.47,9.17 0.84,17.77 c 0.11,3.53 1.13,5.44 3.07,5.75 1.44,0.26 2.74,0.5 3.92,0.73 1.18,0.23 2.53,0.47 4.06,0.73 q 3.69,0.62 7.83,1.46 4.14,0.84 8.06,1.53 3.92,0.86 7.82,1.54 c 2.62,0.46 5.3,0.94 8.06,1.46 q 3.45,0.69 8.06,1.68 a 55.55,55.55 0 0 0 8,1.23 L 256.38,101.99 221.54,95.08 249.01,81.5 256.15,18.72 Z m -49.34,81.87 -3.76,-55 37.83,4 -5.3,45.51 z"
     id="path52"
     inkscape:connector-curvature="0" />
  <path
     d="m 400.03,0.39 2,-0.39 h 1.23 l 0.46,3.15 0.38,1.84 0.38,1.84 0.46,1.84 0.39,1.77 0.38,1.38 0.38,1.84 0.47,1.84 0.38,1.84 0.38,1.85 0.39,1.76 0.46,1.84 0.38,1.38 0.38,1.84 0.47,1.85 0.38,1.84 0.38,1.76 0.46,1.84 0.39,1.85 0.38,1.84 0.46,1.38 0.38,1.84 0.39,1.76 0.46,1.85 0.38,1.84 0.39,1.84 0.46,1.84 0.38,1.77 0.38,1.38 0.39,1.84 0.38,1.84 0.46,1.84 0.39,1.85 0.38,1.76 0.46,1.84 0.38,1.39 v 6.46 l -0.38,9 -0.46,9.21 -0.38,9.6 -0.39,9.05 -0.46,9.24 -0.38,7.75 -0.77,0.46 -0.38,0.92 -0.46,0.38 -8.14,0.54 -10.59,0.39 -9,0.46 -0.38,0.92 -0.38,1.38 -0.47,0.92 -0.3,1.38 -0.46,0.92 -0.39,1.38 -0.38,1.38 -0.46,0.92 -0.38,1.31 -0.39,0.92 -0.46,1.38 -0.38,0.92 -0.39,1.38 -0.45,0.92 -0.39,1.38 -0.38,0.85 -0.46,1.38 -0.38,1.36 -0.38,0.92 -0.46,1.38 -0.38,0.92 -0.39,1.39 -0.38,0.92 -0.46,1.38 -0.39,0.92 -0.38,1.3 -0.46,1 -0.38,1.3 -0.39,0.92 -0.46,1.39 -0.38,1.38 -0.38,0.92 -0.39,1.38 -0.46,0.85 -0.38,1.38 -0.39,0.92 -0.46,1.38 -0.38,0.92 -0.38,1.38 -0.39,0.92 -0.46,1.38 -0.38,1.38 -0.39,0.92 -0.46,1.31 h 1.23 l 1.61,0.46 1.23,0.46 1.23,0.46 1.61,0.46 1.23,0.46 1.23,0.46 1.22,0.46 0.39,1.85 0.46,0.45 0.38,0.47 0.39,0.45 0.45,0.47 0.39,0.84 0.38,0.54 0.46,0.38 0.39,0.46 0.38,0.92 0.46,0.54 0.38,0.38 0.39,0.46 0.46,0.92 0.3,0.46 0.47,0.46 0.38,0.47 0.38,0.92 0.47,0.46 0.38,0.46 0.38,0.46 0.46,0.92 0.39,0.46 0.38,0.46 0.46,0.46 0.38,0.92 0.39,0.38 0.46,0.47 0.38,0.53 0.38,0.84 0.47,0.47 0.38,0.46 0.38,0.46 0.39,0.92 0.46,0.46 0.38,0.46 0.38,0.46 0.39,0.92 0.46,0.46 0.38,0.46 0.39,0.46 0.45,0.92 0.39,0.39 0.38,0.53 0.46,0.39 0.39,0.92 0.38,0.46 v 2.76 l -0.38,1.84 -0.39,1.84 -0.46,1.39 -0.38,1.76 -0.39,1.84 -0.45,1.38 -0.39,1.84 -0.38,1.84 -0.46,1.77 -0.39,1.38 -0.38,1.84 -0.38,1.85 -0.46,1.38 -0.39,1.84 -0.38,1.77 -0.38,1.84 -0.47,1.38 -0.38,1.84 -0.38,1.84 -0.46,1.38 -0.39,1.84 -0.38,1.77 -0.46,1.84 -0.38,0.92 -0.39,0.46 h -1.22 v 0.92 h -2 l -2.92,-0.46 -2.84,-0.46 -2.84,-0.46 -2.83,-0.46 -2.84,-0.46 -2.84,-0.46 -2.92,-0.46 -2.76,-0.46 -2.92,-0.46 -2.84,-0.39 -2.84,-0.53 -2.83,-0.39 -2.85,-0.46 -2.84,-0.46 -2.91,-0.46 -2.76,-0.46 -2.92,-0.46 -2.84,-0.46 -2.84,-0.46 -2.84,-0.46 -2.84,-0.46 -2.84,-0.46 -2.91,-0.46 -2.76,-0.46 -2.92,-0.46 -2.84,-0.46 -2.84,-0.46 -2.79,-0.44 -1.23,-0.46 -0.84,-0.47 -1.15,-0.45 -0.84,-0.47 -0.85,-0.45 -1.23,-0.39 -0.76,-0.53 -0.85,-0.39 -1.23,-0.46 -0.76,-0.46 -0.85,-0.46 -1.22,-0.46 -0.77,-0.46 -0.85,-0.46 -1.15,-0.46 -0.84,-0.46 -0.77,-0.46 -1.23,-0.46 -0.76,-0.46 -0.85,-0.46 -1.23,-0.47 -0.84,-0.46 -0.77,-0.46 -1.23,-0.46 -0.84,-0.38 -0.84,-0.54 -1.15,-0.38 -0.85,-0.46 -0.84,-0.54 -1.15,-0.38 -0.85,-0.54 -0.84,-0.38 -1.23,-0.47 -0.77,-0.45 -0.84,-0.47 -1.23,-0.45 -0.77,-0.47 -0.84,-0.45 -1.23,-0.47 -0.84,-0.46 -0.77,-0.46 -1.23,-0.46 -0.76,-0.46 -0.85,-0.46 -1.23,-0.46 -1.23,-0.46 v -1.84 l 0.39,-3.61 0.46,-3.22 0.38,-3.61 0.38,-3.22 0.47,-3.68 0.38,-3.15 0.38,-3.22 0.47,-3.69 0.38,-3.22 0.38,-3.61 0.39,-3.22 0.38,-3.61 0.46,-3.22 0.38,-3.22 0.39,-3.61 0.46,-3.22 0.38,-1.38 h 3.3 l 4.07,0.46 4.07,0.46 4.06,0.46 4.07,0.46 h 0.38 l 4,-0.46 4.07,-0.46 h 1.23 v -1.38 l 0.38,-3.23 0.46,-3.6 0.39,-3.23 0.38,-3.22 0.38,-3.6 0.47,-3.23 0.38,-3.22 0.38,-3.61 0.46,-3.22 0.39,-3.22 0.38,-3.61 0.46,-3.22 0.38,-3.68 v -3.15 l -0.38,-0.46 -0.46,-0.46 -0.38,-0.46 -0.39,-0.46 -0.46,-0.46 -0.38,-0.46 -0.38,-0.47 -0.47,-0.46 -0.38,-0.46 -0.38,-0.46 -0.39,-0.46 -0.46,-0.46 -0.38,-0.92 -0.39,-0.46 -0.46,-0.46 -0.38,-0.46 -0.38,-0.38 -0.39,-0.54 -0.46,-0.38 -0.38,-0.47 -0.39,-0.45 -0.45,-0.47 -0.39,-0.45 -0.38,-0.47 -0.46,-0.46 -0.39,-0.46 -0.3,-0.92 -0.46,-0.46 -0.39,-0.38 -0.38,-0.54 -0.46,-0.38 -0.38,-0.46 -0.39,-0.46 -0.46,-0.46 -0.38,-0.46 -0.39,-0.47 -0.38,-0.46 -0.38,-0.46 -0.46,-0.46 -0.39,-0.92 -0.38,-0.46 -0.46,-0.46 -0.39,-0.46 -0.38,-0.46 -0.46,-0.46 -0.39,-0.46 -0.38,-0.46 -0.46,-0.46 -0.38,-0.46 -0.39,-0.38 -0.46,-0.54 -0.38,-0.38 -0.38,-0.92 -0.46,-0.47 -0.39,-0.46 -0.38,-0.46 -0.38,-0.46 -0.47,-0.46 -0.38,-0.46 -0.38,-0.46 -0.46,-0.46 -0.39,-0.46 -0.38,-0.46 -1.23,-0.46 -0.38,-9.59 -0.46,-9.14 -0.38,-9.59 -0.39,-9.59 -0.46,-9.13 V 31 l 1.69,-0.38 2,-0.54 1.61,-0.38 2.08,-0.46 2,-0.54 1.69,-0.38 2,-0.46 2,-0.46 1.69,-0.47 1.92,-0.45 2.07,-0.47 1.61,-0.45 2.07,-0.47 2,-0.46 2.07,-0.46 1.61,-0.46 2,-0.46 2.07,-0.46 1.5,-0.48 2,-0.46 2.08,-0.46 1.61,-0.46 2.07,-0.38 2,-0.54 1.62,-0.38 2.07,-0.46 2.07,-0.47 1.61,-0.46 2,-0.46 2.07,-0.46 1.61,-0.46 2,-0.46 2.08,-0.46 1.61,-0.46 2.07,-0.46 2,-0.46 1.61,-0.46 2.07,-0.46 2.07,-0.46 1.61,-0.46 2,-0.46 2.07,-0.46 1.61,-0.46 2,-0.46 2.07,-0.46 1.61,-0.46 2.07,-0.39 2,-0.53 1.61,-0.39 2.07,-0.46 2.07,-0.46 1.61,-0.46 2,-0.46 2.07,-0.46 1.61,-0.46 2,-0.46 2.07,-0.46 1.61,-0.46 2,-0.46 2.08,-0.46 1.61,-0.46 2.07,-0.46 2,-0.46 1.61,-0.47 2.07,-0.45 2.07,-0.39 z M 276.84,34.38 q 0,9.9 0.81,19.8 0.81,9.9 0.72,19.34 0,7.37 2.46,7.36 h 9.36 q 4,0 8.79,-0.27 c 3.2,-0.18 6.35,-0.27 9.47,-0.27 h 1.92 l -10.51,87.72 -12.51,1.38 a 28.45,28.45 0 0 1 -8.28,-0.65 55.32,55.32 0 0 0 -8.68,-1.12 l -5.83,50.26 a 47.75,47.75 0 0 1 9,1.12 q 5.52,1.11 9.29,1.65 10,1.46 18,3 9.13,1.77 18.15,2.95 9.02,1.18 18.22,2.81 c 2.87,0.51 5.87,1 9,1.53 l 9.09,1.46 q 7.37,1.31 7.91,0 c 0.35,-0.9 1.15,-4.11 2.37,-9.63 q 1.23,-5.59 4.92,-19.34 3.69,-13.75 3.83,-17.95 l -46.42,-15.58 33,-94.54 q 6,0 12.05,-0.39 6.05,-0.39 12.36,-0.53 1.29,0 6.14,-0.12 4.85,-0.12 5.21,-1.27 0.08,-0.53 0.27,-6.44 0.19,-5.91 0.19,-7.29 0,-13 1.19,-27 1.19,-14 1.19,-27.48 z"
     id="path54"
     inkscape:connector-curvature="0" />
  <path
     d="m 468.18,1.76 0.38,-0.38 h 2.22 l 2.15,0.38 1.31,0.47 1.76,0.38 1.31,0.46 1.76,0.46 1.69,0.46 1.38,0.39 1.69,0.45 1.31,0.47 2.22,0.38 1.69,0.46 1.38,0.46 1.77,0.38 1.68,0.47 1.31,0.45 1.76,0.47 1.31,0.38 1.76,0.46 1.77,0.38 1.68,0.46 1.77,0.47 1.3,0.45 1.31,0.39 0.46,0.46 0.38,0.46 0.46,0.46 0.46,0.84 0.46,0.39 0.39,0.46 0.46,0.46 0.46,0.84 0.46,0.46 0.38,0.39 0.46,0.46 0.39,0.46 0.46,0.84 0.46,0.46 0.46,0.46 0.38,0.39 0.46,0.92 0.46,0.38 0.46,0.46 0.39,0.46 0.46,0.85 0.38,0.46 0.46,0.46 0.46,0.38 0.46,0.84 0.39,0.46 0.46,0.46 0.46,0.47 0.38,0.38 0.46,0.92 0.46,0.38 0.38,0.46 0.47,0.46 0.45,0.39 0.39,0.92 0.46,0.46 0.46,0.38 0.39,0.46 0.45,0.85 0.47,0.46 0.38,0.46 0.46,0.38 0.46,0.46 0.46,0.92 0.38,0.39 0.46,0.46 0.39,0.84 0.46,0.46 0.46,0.84 0.46,0.47 0.38,0.46 0.46,0.38 0.46,0.46 0.47,0.85 0.38,0.45 0.46,0.47 0.38,0.38 0.46,0.92 0.46,0.38 0.46,0.47 0.39,0.45 0.46,0.39 0.46,0.92 0.46,0.46 0.38,0.38 0.46,0.47 0.39,0.84 0.46,0.46 0.46,0.46 0.46,0.38 0.38,0.46 0.46,0.85 0.46,0.46 0.39,0.46 0.46,0.84 0.46,0.46 0.38,0.46 0.46,0.39 0.46,0.46 0.38,0.84 0.46,0.46 0.47,0.46 0.38,0.39 0.46,0.92 0.46,0.46 0.38,0.38 0.46,0.46 0.46,0.38 0.46,0.93 0.39,0.46 0.46,0.38 0.38,0.46 0.46,0.84 0.46,0.46 0.46,0.47 0.39,0.84 0.46,1.3 0.46,1.77 0.46,1.3 0.38,1.31 0.46,1.76 0.39,1.77 0.46,1.23 0.46,1.38 0.46,1.69 0.38,1.3 0.46,1.77 0.46,1.3 0.46,1.77 0.39,1.76 0.46,1.3 0.38,1.69 0.46,1.31 0.46,1.38 0.46,1.69 0.39,1.3 0.45,1.77 0.47,1.76 0.38,1.3 0.46,1.77 0.46,1.3 0.38,1.69 0.47,1.38 0.38,1.31 0.46,1.3 0.46,1.69 0.46,1.76 0.38,1.31 0.46,1.76 0.39,1.31 0.46,1.69 0.46,1.3 0.46,1.77 0.38,1.76 0.46,1.31 0.46,1.76 0.39,1.31 0.46,1.3 0.46,1.69 0.38,1.38 0.46,1.77 0.46,1.68 0.39,1.31 0.46,1.3 0.46,1.77 0.46,1.3 0.38,1.77 0.46,1.3 0.39,1.69 0.46,1.38 0.46,1.77 0.46,1.23 0.38,1.76 0.46,1.3 0.46,1.77 0.38,1.3 0.47,1.77 0.46,1.76 0.38,1.31 0.46,1.69 0.46,1.3 0.46,1.3 0.38,1.39 0.46,1.68 0.39,1.31 0.46,1.76 0.46,1.77 0.46,1.3 0.38,1.77 0.46,1.3 0.46,1.69 0.46,1.38 0.39,1.69 0.46,1.3 0.38,1.77 0.46,1.3 0.46,1.77 0.46,1.3 0.39,1.77 0.46,1.3 0.46,1.69 0.38,1.38 0.46,1.69 0.46,1.31 0.39,1.76 0.46,1.31 0.46,1.3 0.34,1.72 0.46,1.31 0.46,1.76 0.46,1.69 0.39,1.38 0.46,1.69 0.38,1.31 0.46,1.76 0.46,1.31 0.47,1.79 0.38,1.31 0.47,1.3 0.45,1.77 0.39,1.76 0.46,1.31 0.46,1.3 0.39,1.69 0.45,1.38 0.47,1.69 0.45,1.76 0.39,1.31 v 3.07 l -0.39,1.3 -0.45,0.46 -0.47,0.38 -0.45,0.46 -0.39,0.46 -0.46,0.47 -0.46,0.38 -0.39,0.84 -0.45,0.46 -0.47,0.46 -0.38,0.46 -0.46,0.39 -0.46,0.46 -0.46,0.38 -0.38,0.46 -0.46,0.46 -0.39,0.46 -0.46,0.39 h -3.91 l -2.69,-0.39 -2.15,-0.46 -2.61,-0.46 -2.22,-0.46 -2.15,-0.38 -2.61,-0.46 -2.61,-0.39 -2.22,-0.46 -2.61,-0.46 -2.61,-0.46 -2.15,-0.38 -2.15,-0.46 -1.38,-0.38 -0.84,-0.47 -1.31,-0.46 -1.3,-0.46 -1.31,-0.38 -1.3,-0.46 -1.31,-0.46 -1.38,-0.46 -1.23,-0.38 -0.92,-0.46 -1.3,-0.39 -1.31,-0.46 -1.3,-0.46 -1.3,-0.46 -1.31,-0.38 -1.3,-0.46 -1.31,-0.46 -0.84,-0.39 -1.77,-0.46 -1.38,-0.46 -1.22,-0.38 -1.39,-0.46 -1.3,-0.46 -1.31,-0.46 -0.84,-0.39 -1.3,-0.46 -1.31,-0.38 -1.31,-0.46 -1.3,-0.46 -1.3,-0.46 -1.31,-0.39 -1.38,-0.46 -0.84,-0.46 -1.31,-0.38 -1.3,-0.46 -1.31,-0.46 -1.3,-0.38 -1.31,-0.47 -0.84,-0.53 -0.08,1.84 -0.46,2.15 -0.38,1.76 -0.44,1.8 -0.38,0.46 -0.47,0.84 -0.46,0.46 -0.46,0.39 -0.84,0.46 -1.3,0.46 -0.85,0.38 -0.92,0.46 -1.3,0.46 -0.85,0.46 -1.3,0.39 -0.92,0.46 -0.85,0.38 -1.3,0.46 -0.8,0.48 -0.92,0.46 -1.3,0.38 -0.85,0.46 -1.3,0.46 -0.92,0.47 -0.85,0.38 -1.3,0.46 -0.92,0.38 -1.3,0.46 -0.85,0.46 -1.3,0.46 -0.85,0.39 -0.92,0.46 -1.3,0.38 -1.31,0.46 -0.46,0.46 -1.3,0.46 -1.31,0.39 -0.84,0.46 -0.92,0.46 -1.23,0.38 -0.92,0.46 -1.31,0.46 -0.92,0.39 -1.22,0.46 -0.93,0.46 -0.84,0.38 -1.3,0.46 -0.92,0.46 -1.31,0.46 -0.38,0.39 -1.38,0.45 -1.23,0.39 -0.92,0.46 -0.85,0.46 -1.3,0.46 -0.92,0.38 h -8.75 l -8.29,-0.38 -7.83,-0.46 -8.28,-0.46 -7.91,-0.46 -8.28,-0.39 -7.75,-0.45 -9.21,-0.39 -0.85,-0.46 -0.46,-0.46 -0.38,-0.46 -0.46,-0.84 -0.46,-0.46 -0.38,-0.39 -0.47,-0.92 -0.46,-0.38 -0.38,-0.92 -0.46,-0.39 -0.46,-0.92 -0.39,-0.46 -0.45,-0.38 -0.47,-0.85 -0.45,-0.46 -0.39,-0.92 -0.46,-0.38 -0.38,-0.84 -0.47,-0.47 -0.45,-0.46 -0.47,-0.84 -0.38,-0.46 -0.46,-0.92 -0.46,-0.38 -0.46,-0.85 -0.39,-0.46 -0.45,-0.46 -0.39,-0.84 v -2.23 l 0.39,-1.3 0.45,-0.85 0.39,-1.3 0.46,-1.31 0.46,-0.92 0.46,-1.3 0.38,-0.85 0.47,-0.84 0.45,-1.38 0.47,-1.23 0.38,-0.92 0.46,-1.3 0.39,-0.85 0.45,-1.3 0.47,-0.92 0.45,-1.31 0.39,-0.84 0.46,-0.92 0.46,-1.77 0.38,-0.84 0.46,-0.85 0.47,-1.3 0.38,-0.85 0.46,-1.38 0.46,-0.84 0.38,-1.31 0.46,-0.84 0.46,-1.3 0.39,-1.39 0.46,-0.84 0.46,-1.3 0.38,-0.85 0.46,-0.92 0.46,-1.3 0.46,-1.31 0.39,-0.84 0.46,-0.84 0.38,-1.39 0.46,-1.3 0.46,-0.85 0.46,-1.3 0.39,-0.92 0.46,-0.85 0.46,-1.3 0.46,-1.3 0.38,-0.85 0.46,-1.3 0.38,-1.31 0.46,-0.92 0.47,-1.3 0.46,-0.85 0.38,-0.92 0.46,-1.3 0.46,-1.31 0.46,-0.84 0.38,-1.31 0.46,-0.84 0.39,-1.38 0.46,-1.31 0.46,-0.84 0.46,-0.84 0.38,-0.92 0.46,-1.77 0.46,-0.84 0.39,-0.85 0.47,-1.34 0.46,-0.92 0.31,-1.31 0.45,-0.84 0.47,-1.31 0.38,-0.84 0.46,-1.38 0.46,-1.31 0.46,-0.84 0.39,-1.3 0.45,-0.92 0.39,-0.85 0.46,-1.3 0.46,-1.31 0.46,-0.92 0.38,-1.23 0.47,-0.92 0.45,-1.3 0.39,-0.85 0.46,-1.3 0.46,-0.92 0.38,-0.85 0.46,-1.76 0.47,-0.85 0.45,-0.92 0.39,-1.22 0.46,-0.93 0.38,-1.3 0.46,-1.3 0.46,-0.85 0.47,-0.92 0.38,-1.3 0.46,-1.31 0.46,-0.84 0.46,-1.38 0.38,-0.85 0.46,-0.84 0.39,-1.77 0.46,-0.84 0.46,-0.92 0.46,-1.31 0.38,-1.3 0.46,-0.84 0.46,-0.85 0.39,-1.38 0.46,-0.84 0.46,-1.31 0.38,-1.31 0.46,-0.84 0.46,-0.84 0.39,-1.31 0.46,-1.38 0.46,-0.84 0.46,-1.31 0.38,-0.84 0.46,-0.92 0.38,-1.31 0.46,-1.3 0.46,-0.84 0.47,-1.31 0.38,-0.92 0.46,-1.3 0.46,-1.31 0.38,-0.84 0.46,-0.92 0.46,-0.85 0.39,-1.76 0.46,-0.85 0.46,-0.84 0.46,-1.31 0.38,-0.92 0.46,-1.3 0.39,-1.3 0.46,-0.85 0.46,-0.92 0.46,-1.3 0.38,-1.31 0.46,-0.84 0.46,-1.31 0.46,-0.84 0.39,-1.39 0.46,-1.3 0.38,-0.84 0.46,-0.85 0.46,-1.38 0.46,-0.84 0.38,-1.31 0.47,-1.3 0.46,-0.84 0.38,-0.93 0.46,-1.3 0.46,-1.3 0.39,-0.85 0.45,-0.84 0.47,-1.38 0.38,-1.31 0.46,-0.84 0.46,-1.31 0.46,-0.92 0.39,-1.3 0.45,-1.31 0.39,-0.84 0.46,-0.92 0.46,-1.23 0.46,-0.92 0.38,-1.3 0.47,-1.31 0.45,-0.84 0.39,-0.92 0.46,-1.31 0.46,-1.31 0.38,-0.84 0.46,-0.92 0.47,-1.23 0.45,-0.92 0.39,-1.3 0.46,-1.31 0.46,-0.84 0.38,-0.92 0.46,-1.31 0.46,-1.3 0.39,-0.84 0.46,-1.39 0.46,-0.84 0.46,-1.3 0.38,-1.31 0.46,-0.84 0.39,-0.92 0.46,-1.31 0.46,-0.84 0.46,-1.31 0.38,-1.3 0.46,-0.92 0.46,-0.85 0.39,-1.3 0.46,-1.3 0.46,-0.93 0.38,-0.84 0.46,-1.3 0.46,-0.85 0.38,-1.29 0.46,-1.31 0.47,-0.92 z m -86.41,230.83 q 0,1.16 3.91,6.52 c 2.61,3.59 4.22,5.91 4.84,7 l 0.15,0.46 61.39,-25.33 10.9,-48.42 -4,-4.83 9.28,-45.2 24.33,9.44 a 47.92,47.92 0 0 0 1.26,8.75 c 0.85,4 1.47,7 1.88,9 q 2.08,10.52 3.38,18 1.38,8.82 3.11,17.91 1.73,9.09 3.49,17.77 c 0.31,1.43 0.58,2.93 0.81,4.49 0.23,1.56 0.49,3 0.8,4.41 0.41,2.15 0.65,3.7 0.73,4.64 0.08,0.94 1,1.73 2.72,2.34 q 3.84,1.54 8,2.92 4.16,1.38 8,2.61 7.07,2.37 16,5.91 a 114.83,114.83 0 0 0 15.92,5.14 l 7.29,-8 q -2.15,-4.31 -4.91,-14.66 -2.76,-10.35 -3.84,-15.88 -1.37,-6.42 -4.09,-15.27 -2.72,-8.85 -4.83,-15.46 -5.07,-15 -9.06,-30.73 -3.99,-15.73 -8.59,-31 -4.75,-15.35 -8.86,-30.73 -4.11,-15.38 -8.71,-30.66 c -0.77,-2.45 -1.5,-5 -2.19,-7.6 -0.69,-2.6 -1.42,-5.16 -2.19,-7.67 q -0.92,-2.69 -2.22,-7.83 -1.3,-5.14 -4,-6.06 -7,-1.84 -16.35,-3.76 a 63.31,63.31 0 0 1 -15,-4.68 41,41 0 0 1 -2.61,6.91 q -1.92,4.14 -3,7.13 -2.78,7.53 -5.45,14.2 -2.92,7.29 -5.68,14.31 -2.76,7.02 -5.52,14.08 -5.54,13.82 -11.63,28.17 -6.09,14.35 -10.8,28.38 -4.9,14.36 -11.28,28.39 -6.38,14.03 -11.2,28.08 -0.93,2.92 -4.53,11.67 -3.6,8.75 -7.52,18.34 -3.92,9.58 -7,17.57 -3.08,7.99 -3.13,9.23 z m 101.29,-170.2 4.68,41.51 -12.12,-3.91 z"
     id="path56"
     inkscape:connector-curvature="0" />
  <path
     d="m 676.21,1.61 1.38,-0.3 1.38,0.23 0.16,1.76 0.38,0.54 0.38,0.92 0.31,1 0.38,0.93 0.31,0.46 0.39,1 0.3,0.92 0.39,1 0.38,0.47 0.3,1 0.31,0.92 0.39,0.92 0.38,0.54 0.31,0.92 0.31,0.92 0.45,0.54 0.31,0.92 -0.07,0.92 1.38,-0.31 1.38,-0.22 1.84,-0.24 1.84,-0.23 1.84,-0.23 1.84,-0.23 1.85,-0.23 1.38,-0.23 1.84,-0.23 1.3,0.16 -0.15,1.3 -0.15,0.92 0.38,0.92 0.31,0.92 0.38,0.54 0.38,1 0.31,0.92 0.31,0.92 0.38,1 0.31,0.92 0.38,0.92 0.31,0.92 0.31,1 0.38,0.92 0.31,1 0.38,0.46 0.31,1 0.38,0.93 0.31,0.92 0.31,0.92 0.38,1 0.31,0.92 0.3,1 0.39,0.92 0.3,0.92 0.39,1 0.3,0.46 0.39,0.92 0.31,1 0.38,0.92 0.31,0.92 0.3,1 0.39,0.92 0.3,1 0.31,0.92 0.38,0.92 0.39,0.54 0.31,0.92 0.3,0.92 0.39,1 0.3,0.92 0.31,1 0.38,0.93 0.31,0.92 0.31,0.92 0.38,1 0.31,0.92 0.38,0.54 0.38,0.92 0.31,0.92 0.38,1 0.31,0.92 0.31,0.92 0.38,1 0.31,0.92 0.31,0.92 0.3,1 0.46,0.46 0.31,0.92 0.31,1 0.38,0.92 0.31,1 0.3,0.92 0.39,0.92 0.31,0.92 0.3,1 0.39,0.92 0.31,1 0.38,0.47 0.3,1 0.39,0.92 0.3,0.93 0.39,0.92 0.31,1 0.3,0.92 0.39,1 0.23,1.38 -0.16,1.31 -1.38,7.52 -1.45,7.52 -1.39,7.52 -1.38,7.9 -0.69,5.37 0.31,0.93 0.3,0.92 0.47,0.53 0.3,0.93 0.38,0.53 0.31,1 0.39,0.92 0.3,0.46 0.39,1 0.38,0.46 0.31,1 0.38,0.93 0.39,0.46 0.3,1 0.39,0.47 0.38,1 0.31,0.93 0.38,0.45 0.31,1 0.46,0.46 0.31,0.92 0.3,1 0.38,0.54 0.39,0.92 0.38,0.54 0.31,0.92 0.38,0.92 0.31,0.53 0.38,0.93 0.39,0.53 0.3,0.92 0.31,0.92 0.46,0.54 0.31,0.92 0.38,0.54 0.31,0.92 0.38,0.92 0.39,0.54 0.15,2.3 -1.46,15.19 -1,8 -0.61,1.3 -0.54,0.38 -0.53,0.85 -0.46,0.38 -0.54,0.38 -0.54,0.39 -0.46,0.38 -0.54,0.39 -0.53,0.84 -0.54,0.38 -0.46,0.39 -0.46,0.38 -0.54,0.46 -0.46,0.31 -0.61,0.92 -0.46,0.31 -0.54,0.38 -0.46,0.46 -0.54,0.38 -0.54,0.85 -0.53,0.38 -0.46,0.31 -0.54,0.46 -0.54,0.38 -0.46,0.39 -0.54,0.84 -0.53,0.38 -0.46,0.39 -0.54,0.38 -0.46,0.39 -0.54,0.38 -0.54,0.84 -0.53,0.39 -0.46,0.38 -0.54,0.38 -0.46,0.39 -0.54,0.84 -0.53,0.39 -0.46,0.45 -0.54,0.31 -0.54,0.39 -0.46,0.46 -0.61,0.76 -0.46,0.47 -0.54,0.38 -0.54,0.84 -0.53,0.39 -0.46,0.3 -0.54,0.92 -0.54,0.31 -0.54,0.85 -0.53,0.38 -0.54,0.84 -0.46,0.39 -0.62,0.84 -0.45,0.38 -0.54,0.85 -0.54,0.38 -0.46,0.46 -0.61,0.77 -0.47,0.38 -0.61,0.85 -0.46,0.38 -0.54,0.84 -0.53,0.39 -0.54,0.84 -0.54,0.39 -0.53,0.84 -0.54,0.39 -0.46,0.38 -0.54,0.84 -0.54,0.39 -0.53,0.84 -0.54,0.39 -0.54,0.84 -0.54,0.38 -0.53,0.85 -0.54,0.38 -0.54,0.84 -0.46,0.39 -0.53,0.38 -0.54,0.85 -0.54,0.38 -0.54,0.84 -0.46,0.39 -0.53,0.84 -0.54,0.38 -0.54,0.85 -0.53,0.38 -0.54,0.85 -0.54,0.38 -0.46,0.38 -0.61,0.85 -0.46,0.38 -0.54,0.85 -0.54,0.38 -0.92,0.31 -0.54,0.38 -0.46,0.39 -0.53,0.45 -0.46,0.39 -0.54,0.31 -0.46,0.46 -0.54,0.38 -0.53,0.38 -0.47,0.39 -0.53,0.38 -0.46,0.38 -0.54,0.39 -0.46,0.38 -0.54,0.39 -0.46,0.38 -0.54,0.46 -0.53,0.31 -0.46,0.38 -0.54,0.46 -0.46,0.39 -0.92,0.3 -0.54,0.38 -0.54,0.39 -0.46,0.38 -0.53,0.39 -0.46,0.45 -0.54,0.31 -0.46,0.46 -0.54,0.39 -0.46,0.38 -0.54,0.38 -0.46,0.39 -0.53,0.38 -0.47,0.38 -0.53,0.39 -0.46,0.38 -0.54,0.39 -0.46,0.38 -0.54,0.38 -0.53,0.39 -0.47,0.46 -0.92,0.3 -0.53,0.39 -0.54,0.38 -0.46,0.39 -0.54,0.38 -0.46,0.38 -0.54,0.46 -0.46,0.31 -0.53,0.38 -0.46,0.47 -0.54,0.38 -0.54,0.38 -0.46,0.39 -0.54,0.38 -0.46,0.38 -0.53,0.39 -0.46,0.38 -0.54,0.39 -0.46,0.38 -0.54,0.38 -0.54,0.39 -1.38,0.3 -1.76,-0.23 -1.23,-0.61 -0.84,-0.54 -0.85,-0.54 -1.3,-0.69 -0.84,-0.54 -0.85,-0.53 -1.23,-0.61 -0.84,-0.54 -0.85,-0.54 -1.3,-0.69 -0.84,-0.54 -0.77,-0.54 -1.31,-0.61 -0.84,-0.54 -0.85,-0.53 -1.3,-0.69 -0.85,-0.54 -0.76,-0.54 -1.31,-0.61 -0.84,-0.62 -0.84,-0.46 -1.31,-0.69 -0.84,-0.53 -0.77,-0.54 -1.31,-0.61 -0.84,-0.62 -0.84,-0.54 -1.31,-0.61 -0.84,-0.54 -0.85,-0.53 -1.22,-0.72 -0.85,-0.61 -0.84,-0.54 -1.31,-0.61 -0.76,-0.54 -0.92,-0.54 -1.23,-0.61 -0.85,-0.62 -0.84,-0.53 -1.3,-0.62 -0.77,-0.53 -0.92,-0.54 -1.23,-0.61 -0.84,-0.62 -0.85,-0.54 -0.84,-0.53 -0.85,-0.54 -0.84,-0.61 -1.23,-0.62 -0.84,-0.53 -0.85,-0.54 -0.84,-0.54 -0.84,-0.61 -0.85,-0.54 -0.84,-0.54 -0.77,-0.54 -0.85,-0.61 -0.76,-0.54 -0.85,-0.53 -0.84,-0.54 -0.85,-0.61 -0.84,-0.54 -0.84,-0.54 -0.85,-0.61 -0.84,-0.54 -0.77,-0.54 -0.84,-0.53 -1.31,-0.62 -0.84,-0.61 -0.85,-0.54 -0.84,-0.53 -0.84,-0.62 -0.85,-0.54 -0.77,-0.53 -0.84,-0.54 -0.84,-0.61 -0.85,-0.54 -0.84,-0.54 -0.84,-0.54 -0.85,-0.61 -0.77,-0.54 -0.92,-0.53 -0.77,-0.54 -0.84,-0.62 -0.84,-0.53 -0.87,-0.54 -0.84,-0.54 0.38,-2.68 0.69,-2.23 0.69,-2.15 0.77,-2.14 0.77,-2.62 0.69,-2.14 0.77,-2.23 0.76,-2.61 0.77,-2.15 0.69,-2.22 0.77,-2.61 0.77,-2.15 0.69,-2.15 0.69,-2.14 0.84,-2.69 0.69,-2.15 0.77,-2.15 0.77,-2.61 0.77,-2.23 0.68,-2.14 0.69,-2.15 0.85,-2.61 0.69,-2.23 0.77,-2.14 0.61,-1.77 0.92,-0.3 1.38,0.15 0.08,-0.85 -0.84,-0.15 -0.39,-0.46 -0.84,-0.61 -0.39,-0.46 -0.38,-0.47 -0.84,-0.61 -0.39,-0.46 -0.84,-0.61 -0.39,-0.46 -0.84,-0.62 -0.38,-0.46 -0.85,-0.54 -0.38,-0.53 -0.84,-0.54 -0.39,-0.54 -0.84,-0.54 -0.39,-0.45 -0.38,-0.54 -0.84,-0.54 -0.39,-0.54 -0.84,-0.53 -0.39,-0.46 -0.84,-0.62 -0.38,-0.46 -0.85,-0.54 -0.84,-0.61 -0.39,-0.46 -0.3,-1 -0.46,-0.46 -0.31,-0.92 -0.38,-0.54 -0.31,-0.92 -0.38,-0.53 -0.39,-0.93 -0.38,-0.53 -0.31,-0.92 -0.3,-1 -0.39,-0.46 -0.38,-0.92 -0.39,-0.54 -0.3,-0.92 -0.39,-0.54 -0.38,-0.92 -0.39,-0.53 -0.3,-0.93 -0.38,-0.53 -0.39,-0.92 -0.38,-0.46 -0.31,-1 -0.38,-0.46 -0.31,-0.92 -0.46,-0.54 -0.31,-0.92 -0.38,-0.54 -0.31,-0.92 -0.46,-0.54 -0.3,-0.92 -0.39,-0.53 -0.3,-0.92 -0.39,-0.54 -0.38,-0.92 -0.31,-0.92 -0.38,-0.54 -0.31,-0.92 -0.38,-0.46 -0.39,-1 -0.38,-0.46 -0.31,-1 -0.38,-0.46 -0.38,-0.92 -0.39,-0.54 -0.31,-0.92 -0.38,-0.53 -0.38,-0.92 -0.31,-0.54 -0.38,-0.92 -0.39,-0.46 -0.31,-1 -0.38,-0.46 0.16,-1.38 0.45,-0.38 0.54,-0.39 0.46,-0.38 0.54,-0.39 0.54,-0.84 0.46,-0.38 0.53,-0.39 0.54,-0.38 0.54,-0.84 0.54,-0.39 0.46,-0.39 0.54,-0.38 0.53,-0.84 0.54,-0.39 0.46,-0.38 0.54,-0.46 0.53,-0.77 0.46,-0.46 0.54,-0.31 0.46,-0.38 0.61,-0.84 0.47,-0.39 0.53,-0.46 0.46,-0.38 0.62,-0.84 0.46,-0.39 0.53,-0.38 0.46,-0.38 0.54,-0.39 0.54,-0.84 0.46,-0.39 0.54,-0.38 0.53,-0.38 0.54,-0.85 0.46,-0.38 0.54,-0.38 0.54,-0.39 0.53,-0.84 0.46,-0.39 0.54,-0.38 0.46,-0.38 0.61,-0.85 0.47,-0.38 0.53,-0.38 0.46,-0.39 0.62,-0.84 0.46,-0.39 0.53,-0.46 0.47,-0.3 0.53,-0.39 0.54,-0.84 0.46,-0.38 0.54,-0.47 0.46,-0.38 0.61,-0.85 0.46,-0.38 0.54,-0.3 0.46,-0.47 0.61,-0.76 0.46,-0.46 0.54,-0.39 0.54,-0.38 0.46,-0.85 0.54,-0.38 0.53,-0.38 0.46,-0.39 0.62,-0.84 0.46,-0.38 0.53,-0.39 0.46,-0.38 0.54,-0.38 0.54,-0.85 0.53,-0.38 0.47,-0.39 0.53,-0.38 0.54,-0.84 0.46,-0.39 0.46,-0.38 0.46,-0.38 0.62,-0.85 0.46,-0.38 0.53,-0.39 0.46,-0.46 0.62,-0.76 0.46,-0.39 0.54,-0.38 0.45,-0.38 0.54,-0.85 0.54,-0.38 0.54,-0.46 0.46,-0.39 0.54,-0.84 0.53,-0.38 0.54,-0.31 0.46,-0.46 0.54,-0.39 0.53,-0.84 0.47,-0.38 0.53,-0.39 0.46,-0.38 0.62,-0.84 0.46,-0.39 0.53,-0.38 0.47,-0.39 0.61,-0.84 0.46,-0.39 0.54,-0.38 0.46,-0.38 0.53,-0.85 0.54,-0.38 0.46,-0.38 0.54,-0.39 0.53,-0.84 0.54,-0.39 0.46,-0.38 0.54,-0.38 0.54,-0.39 0.53,-0.84 0.46,-0.38 0.54,-0.39 0.54,-0.38 0.53,-0.85 0.47,-0.38 0.53,-0.38 0.46,-0.46 0.62,-0.77 0.46,-0.46 0.53,-0.38 0.47,-0.39 0.61,-0.84 0.46,-0.31 0.54,-0.46 0.46,-0.38 0.53,-0.85 0.54,-0.38 0.46,-0.38 0.54,-0.39 0.54,-0.84 0.54,-0.38 0.45,-0.39 0.54,-0.38 0.46,-0.39 0.62,-0.84 0.46,-0.38 0.53,-0.39 0.46,-0.38 0.54,-0.84 0.54,-0.39 0.54,-0.38 0.46,-0.39 0.61,-0.84 0.46,-0.38 0.54,-0.39 0.46,-0.38 0.53,-0.84 0.54,-0.39 0.46,-0.38 0.54,-0.46 0.54,-0.77 0.53,-0.39 0.46,-0.38 0.55,-0.54 0.46,-0.38 0.62,-0.77 0.45,-0.46 0.54,-0.38 0.46,-0.39 0.54,-0.84 0.54,-0.39 0.46,-0.38 0.53,-0.38 0.54,-0.85 0.54,-0.38 0.54,-0.38 0.46,-0.39 0.54,-0.38 1.37,-0.23 1.39,-0.31 1.84,-0.23 1.38,-0.31 1.38,-0.23 1.84,-0.23 1.38,-0.31 1.46,-0.3 1.38,-0.23 1.85,-0.23 1.38,-0.23 1.38,-0.31 1.84,-0.23 1.38,-0.31 1.38,-0.23 1.84,-0.22 1.39,-0.31 1.45,-0.23 1.77,-0.23 1.45,-0.31 1.39,-0.23 1.38,-0.31 z M 555.27,96.38 q 0,0.17 7.91,16.08 7.91,15.91 9,18 l 91,-0.61 q -0.23,0.47 -5.91,4.53 -5.68,4.06 -12.39,8.78 -6.72,4.73 -12.36,8.6 -5.64,3.87 -5.63,3.8 -1.54,-0.15 -3.19,-3.95 c -1.1,-2.54 -2,-3.85 -2.57,-4 q -2.07,-0.22 -18.11,2.07 -16.04,2.29 -17.19,3 l -16.5,51.1 32.08,21 a 51.75,51.75 0 0 0 6.87,-4.69 q 4.71,-3.6 7,-5.44 3.3,-2.54 6.79,-5.11 3.49,-2.57 7,-5.18 2.06,-1.6 7.25,-5.06 a 41.36,41.36 0 0 0 6.63,-5.07 q 5.37,-6 11.51,-13 12.9,-14.81 23.41,-25.78 a 125,125 0 0 1 12.97,-11.61 91.47,91.47 0 0 0 12.51,-11.7 c 0.36,-3.22 0.64,-6.23 0.84,-9 0.2,-2.77 0.51,-5.75 0.92,-8.87 a 72.41,72.41 0 0 0 0.81,-8.63 q -0.12,-1.11 -7.87,-1 a 69.61,69.61 0 0 1 -8.59,-0.08 l -8.44,-0.53 q -4.14,-0.24 -8.79,-0.27 a 72.54,72.54 0 0 1 -8.39,-0.45 131,131 0 0 0 -17.23,-0.73 103.83,103.83 0 0 1 -17,-1 124.37,124.37 0 0 0 -17,-0.73 108.6,108.6 0 0 1 -17.34,-1 l 60.78,-42 -4.91,31.61 33.37,-3.6 11.9,-65.38 -18.88,2.45 -1.92,-17 a 51.11,51.11 0 0 0 -10.35,1.39 q -7.07,1.46 -10.75,2 c -1.84,0.31 -3.61,0.61 -5.29,0.92 -1.68,0.31 -3.38,0.56 -5.07,0.77 a 6.66,6.66 0 0 0 -4,2.45 40.76,40.76 0 0 1 -3.41,3.53 q -7,6.3 -13.81,13.09 -6.81,6.79 -13.48,13.43 -2.07,2.07 -10.74,10.32 -8.67,8.25 -18.31,17.48 -9.63,9.24 -17.34,16.8 -7.71,7.56 -7.79,8.27 z"
     id="path58"
     inkscape:connector-curvature="0" />
  <g
     aria-label="CONSCIENTES"
     style="font-size:77.19999695px;font-family:FriendlySchoolmates, 'Friendly Schoolmates';fill:#ffffff;fill-opacity:1;stroke:#000000;stroke-width:2px;stroke-miterlimit:10"
     id="text74">
    <path
       d="m 201.32411,342.79586 q -5.54121,0 -10.21543,-2.86485 -4.67422,-2.82715 -7.50137,-8.48144 -2.82715,-5.6543 -2.82715,-14.09805 0,-9.49922 2.63868,-16.8498 2.63867,-7.38828 7.57675,-11.57246 4.93809,-4.22188 11.87403,-4.22188 3.88261,0 6.25742,1.80938 2.4125,1.80937 3.50566,4.48574 1.09317,2.63867 1.09317,5.20195 0,2.60098 -0.56543,4.63652 -0.56543,1.99786 -1.96016,1.99786 -1.5832,0 -1.5832,-2.29942 0,-3.39258 -1.31934,-6.48359 -1.5832,-3.73184 -4.44805,-3.73184 -2.78945,0 -5.39043,2.82715 -2.60097,2.78945 -4.25957,8.59453 -1.65859,5.76738 -1.65859,14.77656 0,2.07325 0.30156,4.825 0.30157,2.71407 1.05547,5.50352 0.75391,2.78945 2.03555,5.20195 1.31933,2.37481 3.31719,3.84492 1.99785,1.47012 4.7873,1.47012 2.63867,0 4.7873,-1.31934 2.18633,-1.35703 3.50567,-3.43027 0.67851,-1.01777 1.84707,-1.01777 1.50781,0 1.50781,1.50781 0,0.45234 -0.26387,1.01777 -1.05546,2.22403 -3.1664,4.18418 -2.07324,1.99785 -4.90039,3.2418 -2.78946,1.24395 -6.03125,1.24395 z"
       style="letter-spacing:-0.02em;fill:#ffffff;fill-opacity:1"
       id="path920" />
    <path
       d="m 235.35937,342.79586 q -5.54121,0 -9.80078,-2.86485 -4.22187,-2.82715 -6.63437,-8.48144 -2.4125,-5.6543 -2.4125,-14.09805 0,-9.49922 2.4125,-16.8498 2.45019,-7.38828 7.16211,-11.57246 4.74961,-4.22188 11.68554,-4.22188 8.48145,0 12.47715,9.15996 3.31719,7.61445 3.31719,19.11152 0,12.59024 -4.07109,20.61934 -4.63653,9.19766 -14.13575,9.19766 z m 1.92247,-5.42813 q 5.16425,0 8.25527,-6.70976 1.35703,-2.94024 2.11094,-6.29512 1.39472,-6.14434 1.39472,-11.38399 0,-8.14218 -1.65859,-13.11796 -1.6209,-4.97578 -3.9957,-7.2375 -2.37481,-2.29942 -4.63653,-2.29942 -2.78945,0 -5.20195,3.05332 -2.37481,3.05332 -3.84492,8.93379 -1.43242,5.84277 -1.43242,15.64356 0,19.41308 9.00918,19.41308 z"
       style="fill:#ffffff;fill-opacity:1"
       id="path922" />
    <path
       d="m 287.76323,343.17281 q -3.54336,0 -5.72969,-4.97578 -4.33496,-9.72539 -10.14003,-30.23164 -1.31934,-4.63653 -1.92247,-4.63653 -0.45234,0 -0.45234,9.08457 0,1.92247 0.30156,9.61231 0.30157,7.65215 0.30157,11.45937 0,9.34844 -4.25957,9.34844 -5.50352,0 -5.50352,-21.41094 0,-11.34628 1.28164,-26.04746 0.37695,-4.07109 1.13086,-7.12441 0.90469,-3.54336 3.88262,-3.54336 4.56113,0 6.55898,6.82285 10.85625,37.31836 11.87402,37.31836 0.98008,0 0.98008,-4.25957 0,-8.0668 -1.43242,-26.42441 -0.18848,-2.14864 -0.18848,-4.33496 0,-2.22403 0.18848,-4.52344 0.37695,-4.59883 3.16641,-4.59883 3.84492,0 5.20195,3.88262 1.77168,5.08887 1.77168,20.73242 0,25.85898 -2.97793,31.06094 -1.5832,2.78945 -4.0334,2.78945 z"
       style="letter-spacing:-0.01em;fill:#ffffff;fill-opacity:1"
       id="path924" />
    <path
       d="m 313.02272,341.89117 q -6.3705,0 -9.42382,-3.50567 -3.01563,-3.46796 -3.01563,-7.76523 0,-2.60098 0.60313,-4.59883 0.60312,-1.99785 1.99785,-1.99785 1.50781,0 1.50781,2.26172 0,1.84707 0.56543,4.37266 0.56543,2.52558 2.18633,4.07109 1.6209,1.54551 4.33496,1.54551 2.71406,0 4.22187,-1.80938 1.50781,-1.84707 1.50781,-5.16426 0,-6.59668 -6.97363,-13.23105 -2.3748,-2.22402 -4.67422,-4.825 -2.26171,-2.60098 -3.76953,-5.91816 -1.50781,-3.31719 -1.50781,-7.76524 0,-3.24179 1.73398,-6.4082 1.77168,-3.16641 5.20196,-5.23965 3.46797,-2.11094 8.59453,-2.11094 4.7873,0 7.80293,3.12871 3.05332,3.09102 3.05332,7.38829 0,2.60097 -0.60313,4.59882 -0.56543,1.96016 -2.03554,1.96016 -1.47012,0 -1.47012,-2.22402 0,-1.84707 -0.60313,-3.99571 -1.5455,-5.23964 -6.03125,-5.23964 -1.88476,0 -3.27949,0.98007 -1.39472,0.94239 -2.14863,2.4502 -0.71621,1.50781 -0.71621,3.12871 0,3.2041 1.20625,5.69199 1.24394,2.4502 3.1664,4.52344 1.96016,2.07324 4.14649,4.0334 9.23535,8.14218 9.23535,18.13144 0,5.69199 -4.07109,9.61231 -4.0334,3.92031 -10.74317,3.92031 z"
       style="letter-spacing:0em;fill:#ffffff;fill-opacity:1"
       id="path926" />
    <path
       d="m 352.82897,342.79586 q -5.54121,0 -10.21543,-2.86485 -4.67422,-2.82715 -7.50136,-8.48144 -2.82715,-5.6543 -2.82715,-14.09805 0,-9.49922 2.63867,-16.8498 2.63867,-7.38828 7.57676,-11.57246 4.93808,-4.22188 11.87402,-4.22188 3.88262,0 6.25742,1.80938 2.4125,1.80937 3.50567,4.48574 1.09316,2.63867 1.09316,5.20195 0,2.60098 -0.56543,4.63652 -0.56543,1.99786 -1.96016,1.99786 -1.5832,0 -1.5832,-2.29942 0,-3.39258 -1.31934,-6.48359 -1.5832,-3.73184 -4.44804,-3.73184 -2.78946,0 -5.39043,2.82715 -2.60098,2.78945 -4.25957,8.59453 -1.6586,5.76738 -1.6586,14.77656 0,2.07325 0.30157,4.825 0.30156,2.71407 1.05547,5.50352 0.7539,2.78945 2.03554,5.20195 1.31934,2.37481 3.31719,3.84492 1.99785,1.47012 4.7873,1.47012 2.63868,0 4.78731,-1.31934 2.18633,-1.35703 3.50566,-3.43027 0.67852,-1.01777 1.84707,-1.01777 1.50782,0 1.50782,1.50781 0,0.45234 -0.26387,1.01777 -1.05547,2.22403 -3.16641,4.18418 -2.07324,1.99785 -4.90039,3.2418 -2.78945,1.24395 -6.03125,1.24395 z"
       style="letter-spacing:0em;fill:#ffffff;fill-opacity:1"
       id="path928" />
    <path
       d="m 377.02936,342.83355 q -6.21972,0 -6.21972,-21.41094 0,-9.6123 1.05547,-23.55957 0.49004,-6.33281 1.65859,-9.27304 1.50781,-3.76953 5.80508,-3.76953 3.1664,0 3.58105,4.48574 0.22617,2.29941 0.22617,4.52344 0,2.18632 -0.22617,4.33496 -1.09316,12.47715 -1.09316,22.31562 0,3.69414 0,13.04258 0,9.31074 -4.78731,9.31074 z"
       style="letter-spacing:0em;fill:#ffffff;fill-opacity:1"
       id="path930" />
    <path
       d="m 404.50924,343.2482 q -12.51484,0 -13.26875,-12.02481 -0.33926,-5.20195 -0.33926,-10.21542 0,-2.90254 0.18848,-8.21758 0.67852,-19.41309 2.86484,-23.82344 1.39473,-2.86484 4.37266,-3.61875 2.60098,-0.64082 8.14219,-0.64082 6.18203,0 10.85625,1.54551 3.88261,1.31933 3.88261,2.86484 0,0.45235 -0.22617,0.90469 -0.56543,1.13086 -1.80937,1.13086 -0.41465,0 -1.88477,-0.60313 -3.65644,-1.47011 -8.59453,-1.47011 -3.27949,0 -4.29726,1.96015 -0.98008,1.92246 -1.35704,6.52129 -0.98007,11.19551 -0.98007,18.77227 0,2.33711 4.33496,2.33711 5.35273,0 8.33066,-1.13086 0.71621,-0.26387 1.28164,-0.26387 1.16856,0 1.6586,1.28164 0.15078,0.37695 0.15078,0.75391 0,1.35703 -1.31934,1.84707 -4.29726,1.5832 -10.14004,1.5832 -4.37265,0 -4.37265,2.60098 0,5.01347 0.52773,8.48144 0.30156,2.18633 1.35703,3.54336 1.09317,1.39473 3.54336,1.39473 6.14434,0 10.4416,-1.96016 0.90469,-0.41465 1.31934,-0.41465 1.24394,0 1.80937,1.13086 0.22617,0.45235 0.22617,0.90469 0,1.20625 -1.09316,1.80937 -5.50352,3.01563 -15.60586,3.01563 z"
       style="letter-spacing:0em;fill:#ffffff;fill-opacity:1"
       id="path932" />
    <path
       d="m 451.25325,343.17281 q -3.54336,0 -5.72969,-4.97578 -4.33496,-9.72539 -10.14003,-30.23164 -1.31934,-4.63653 -1.92246,-4.63653 -0.45235,0 -0.45235,9.08457 0,1.92247 0.30156,9.61231 0.30157,7.65215 0.30157,11.45937 0,9.34844 -4.25957,9.34844 -5.50352,0 -5.50352,-21.41094 0,-11.34628 1.28164,-26.04746 0.37695,-4.07109 1.13086,-7.12441 0.90469,-3.54336 3.88262,-3.54336 4.56113,0 6.55898,6.82285 10.85625,37.31836 11.87402,37.31836 0.98008,0 0.98008,-4.25957 0,-8.0668 -1.43242,-26.42441 -0.18848,-2.14864 -0.18848,-4.33496 0,-2.22403 0.18848,-4.52344 0.37695,-4.59883 3.16641,-4.59883 3.84492,0 5.20195,3.88262 1.77168,5.08887 1.77168,20.73242 0,25.85898 -2.97793,31.06094 -1.5832,2.78945 -4.0334,2.78945 z"
       style="letter-spacing:-0.04em;fill:#ffffff;fill-opacity:1"
       id="path934" />
    <path
       d="m 475.11739,342.04195 q -6.21972,0 -6.21972,-21.41094 0,-8.8584 1.05547,-22.80566 0.26386,-3.50566 0.7539,-5.95586 0.15078,-0.75391 0.15078,-1.31934 0,-1.5455 -1.43242,-1.5455 -0.52773,0 -1.28164,0.18847 -2.33711,0.56543 -4.59883,1.54551 -0.90468,0.41465 -1.62089,0.41465 -0.56543,0 -0.98008,-0.26387 -0.86699,-0.52773 -0.86699,-1.47011 0,-1.96016 1.62089,-2.67637 6.03125,-2.78946 12.74102,-3.01563 1.16855,-0.0377 2.3748,-0.0377 8.36836,0 14.5127,2.60097 1.73398,0.75391 1.73398,1.99786 0,1.47011 -0.45234,1.96015 -0.45235,0.49004 -1.20625,0.49004 -0.86699,0 -1.69629,-0.33926 -3.58105,-1.5455 -5.72969,-1.5455 -2.78945,0 -3.43027,10.89394 -0.64082,10.85625 -0.64082,19.94082 v 13.00488 q 0,9.34844 -4.78731,9.34844 z"
       style="letter-spacing:0.01em;fill:#ffffff;fill-opacity:1"
       id="path936" />
    <path
       d="m 507.00295,343.2482 q -12.51485,0 -13.26875,-12.02481 -0.33926,-5.20195 -0.33926,-10.21542 0,-2.90254 0.18848,-8.21758 0.67851,-19.41309 2.86484,-23.82344 1.39473,-2.86484 4.37266,-3.61875 2.60097,-0.64082 8.14218,-0.64082 6.18203,0 10.85625,1.54551 3.88262,1.31933 3.88262,2.86484 0,0.45235 -0.22617,0.90469 -0.56543,1.13086 -1.80938,1.13086 -0.41465,0 -1.88476,-0.60313 -3.65645,-1.47011 -8.59453,-1.47011 -3.2795,0 -4.29727,1.96015 -0.98008,1.92246 -1.35703,6.52129 -0.98008,11.19551 -0.98008,18.77227 0,2.33711 4.33496,2.33711 5.35274,0 8.33067,-1.13086 0.71621,-0.26387 1.28164,-0.26387 1.16855,0 1.65859,1.28164 0.15078,0.37695 0.15078,0.75391 0,1.35703 -1.31933,1.84707 -4.29727,1.5832 -10.14004,1.5832 -4.37266,0 -4.37266,2.60098 0,5.01347 0.52774,8.48144 0.30156,2.18633 1.35703,3.54336 1.09316,1.39473 3.54336,1.39473 6.14433,0 10.4416,-1.96016 0.90468,-0.41465 1.31933,-0.41465 1.24395,0 1.80938,1.13086 0.22617,0.45235 0.22617,0.90469 0,1.20625 -1.09316,1.80937 -5.50352,3.01563 -15.60586,3.01563 z"
       style="fill:#ffffff;fill-opacity:1"
       id="path938" />
    <path
       d="m 537.72463,341.89117 q -6.37051,0 -9.42383,-3.50567 -3.01563,-3.46796 -3.01563,-7.76523 0,-2.60098 0.60313,-4.59883 0.60312,-1.99785 1.99785,-1.99785 1.50781,0 1.50781,2.26172 0,1.84707 0.56543,4.37266 0.56543,2.52558 2.18633,4.07109 1.6209,1.54551 4.33496,1.54551 2.71406,0 4.22188,-1.80938 1.50781,-1.84707 1.50781,-5.16426 0,-6.59668 -6.97363,-13.23105 -2.37481,-2.22402 -4.67422,-4.825 -2.26172,-2.60098 -3.76953,-5.91816 -1.50782,-3.31719 -1.50782,-7.76524 0,-3.24179 1.73399,-6.4082 1.77168,-3.16641 5.20195,-5.23965 3.46797,-2.11094 8.59453,-2.11094 4.78731,0 7.80293,3.12871 3.05332,3.09102 3.05332,7.38829 0,2.60097 -0.60312,4.59882 -0.56543,1.96016 -2.03555,1.96016 -1.47012,0 -1.47012,-2.22402 0,-1.84707 -0.60312,-3.99571 -1.54551,-5.23964 -6.03125,-5.23964 -1.88477,0 -3.27949,0.98007 -1.39473,0.94239 -2.14864,2.4502 -0.71621,1.50781 -0.71621,3.12871 0,3.2041 1.20625,5.69199 1.24395,2.4502 3.16641,4.52344 1.96016,2.07324 4.14648,4.0334 9.23535,8.14218 9.23535,18.13144 0,5.69199 -4.07109,9.61231 -4.0334,3.92031 -10.74316,3.92031 z"
       style="fill:#ffffff;fill-opacity:1"
       id="path940" />
  </g>
  <path
     transform="translate(-38.16,-269.69)"
     style="fill:#4a6ed3;stroke:#000000;stroke-miterlimit:10"
     d="m 227.5,334.5 -28,-3 1,-35 25,2 z"
     id="polygon76" />
  <path
     transform="translate(-38.16,-269.69)"
     style=""
     d="m 214,284 15,16 -30,-3 z"
     id="polygon78" />
  <path
     style=""
     d="m 169.84,39.810001 h 8.5 v 3 h -8.5 z"
     id="rect80" />
  <path
     transform="translate(-38.16,-269.69)"
     style="fill:#e9a400;stroke:#000000;stroke-miterlimit:10"
     d="M 288.25,347.5 293,310 263.43,307.03 258,353 l 19,4.09 z"
     id="polygon82" />
  <path
     transform="translate(-38.16,-269.69)"
     style="fill:#e87089;stroke:#000000;stroke-miterlimit:10"
     d="m 400.5,506.5 -43,-10 3.01,-45.48 51.99,15.48 z"
     id="polygon84" />
  <path
     transform="translate(-38.16,-269.69)"
     style=""
     d="M 357.07,455.51 365.96,433.1 413,455 v 15 z"
     id="polygon86" />
  <path
     transform="scale(-1)"
     style=""
     d="m -352.64001,-231.51999 h 15.14 v 21.51 h -15.14 z"
     id="rect88" />
  <path
     transform="translate(-38.16,-269.69)"
     style="fill:#dd2671;stroke:#000000;stroke-miterlimit:10"
     d="M 330.78,467.91 323,439 l 16,-3 4,30 z"
     id="polygon90" />
  <path
     transform="translate(-38.16,-269.69)"
     style="fill:#dd2671;stroke:#000000;stroke-miterlimit:10"
     d="m 303,478 16,3 -10,-44 z"
     id="polygon92" />
  <path
     style=""
     d="m 271.84,174.31 h 20 v 4 h -20 z"
     id="rect94" />
  <path
     transform="translate(-38.16,-269.69)"
     style="fill:#e9a400;stroke:#000000;stroke-miterlimit:10"
     d="m 336.5,493.8 26,3.7 4,-33.82 -37,9.51 z"
     id="polygon96" />
  <path
     transform="translate(-38.16,-269.69)"
     style=""
     d="m 355.5,491.16 h -11 l -1,-12.68 h 12 z"
     id="polygon98" />
  <path
     transform="translate(-38.16,-269.69)"
     style=""
     d="M 369,464.21 362.55,451 332,466.19 l -3,6.48 z"
     id="polygon100" />
  <path
     transform="translate(-38.16,-269.69)"
     style="fill:#4a6ed3;stroke:#000000;stroke-miterlimit:10"
     d="m 514,369 6,-38 7,43 5,-46 -43,-4 -14,37 z"
     id="polygon102" />
  <path
     transform="translate(-38.16,-269.69)"
     style="fill:#e9a400;stroke:#000000;stroke-miterlimit:10"
     d="m 563,330 -74,-2 20,-52 35,9 z"
     id="polygon104" />
  <path
     transform="translate(-38.16,-269.69)"
     style="fill:#daff15;stroke:#000000;stroke-miterlimit:10"
     d="m 526.5,373.5 2,-36 31,3 7,28 z"
     id="polygon106" />
  <path
     transform="translate(-38.16,-269.69)"
     style=""
     d="m 524,340.18 35,-0.18 -4,-19 -29.19,4.74 z"
     id="polygon108" />
  <path
     transform="translate(-38.16,-269.69)"
     style=""
     d="m 550.11,368.73 -10.24,1.83 -1.98,-14.56 h 8.6 z"
     id="polygon110" />
  <path
     transform="translate(-38.16,-269.69)"
     style="fill:#dd2600;stroke:#000000;stroke-miterlimit:10"
     d="m 511.5,343.71 2.01,24.77 -33.5,-6.08 0.45,-8.85 0.2,-3.91 z"
     id="polygon112" />
  <path
     transform="translate(-38.16,-269.69)"
     style=""
     d="M 512.17,354.02 480,355 l 1,-5 30.89,-6.29 z"
     id="polygon114" />
  <path
     transform="rotate(-0.07)"
     style=""
     d="m 452.85876,86.873039 h 3.78 v 1.96 h -3.78 z"
     id="rect116" />
  <path
     transform="rotate(-0.07)"
     style=""
     d="m 465.26874,92.793022 h 1.08 v 4.91 h -1.08 z"
     id="rect118" />
  <path
     class="cls-4"
     d="m 450.57,80.31 3.82,-21.75 27.87,3 c 0,0 -0.55,15.68 -2.19,16.7 -1.64,1.02 -29.5,2.05 -29.5,2.05 z"
     id="path120"
     inkscape:connector-curvature="0"
     style="fill:#33d36c;stroke:#000000;stroke-miterlimit:10" />
  <path
     d="m 450.57,58.56 c 0,0 36.6,6.57 35.51,4.55 -1.09,-2.02 -22.4,-25.8 -22.4,-25.8 z"
     id="path122"
     inkscape:connector-curvature="0" />
  <path
     style=""
     d="m 460.29001,63.700016 h 8.05 v 7.45 h -8.05 z"
     id="rect124" />
  <path
     transform="translate(-38.16,-269.69)"
     style=""
     d="m 515.39,366.88 -1.93,3.53 -0.96,3.53 17.5,9.06 -5.93,-22 z"
     id="polygon126" />
  <path
     transform="translate(-38.16,-269.69)"
     style="fill:#e9a400;stroke:#000000;stroke-miterlimit:10"
     d="m 624.5,421.5 37,-4 11,8 -2.14,23.5 -29.22,-10 -20,10.82 -3.64,-10.32 z"
     id="polygon128" />
  <path
     transform="translate(-38.16,-269.69)"
     style="fill:#e9a400;stroke:#000000;stroke-miterlimit:10"
     d="m 624.5,417.5 -16,-13 8,28 z"
     id="polygon130" />
  <path
     style=""
     d="m 579.34003,148.81 h 16 v 9 h -16 z"
     id="rect132" />
  <path
     style=""
     d="m 131.34,145.81 h 10 v 17 h -10 z"
     id="rect134" />
  <path
     transform="translate(-38.16,-269.69)"
     style="opacity:1;fill:#ffffff;fill-opacity:1"
     d="m 59,371 9,-1 16,-70 55,-27 35,85 -34,18 -31,-40 -9.11,139 -51.39,-21.94 z"
     id="polygon136" />
  <path
     transform="translate(-38.16,-269.69)"
     style="fill:#33d36c;stroke:#000000;stroke-miterlimit:10"
     d="m 161,396 -22,23 21,59 31.5,-59.5 z"
     id="polygon138" />
  <path
     style=""
     d="m 114.34,145.81 h 9 v 9 h -9 z"
     id="rect140" />
  <path
     transform="translate(-38.16,-269.69)"
     style="fill:#4a6ed3;stroke:#000000;stroke-miterlimit:10"
     d="m 134,520 26,-42 -17,-62 -47,43 z"
     id="polygon142" />
  <path
     class="cls-16"
     d="m 91.12,208.31 3.85,-31.62 28,4.41 c 0,0 -0.55,22.8 -2.2,24.27 -1.65,1.47 -29.65,2.94 -29.65,2.94 z"
     id="path144"
     inkscape:connector-curvature="0"
     style="fill:#e93400;stroke:#000000;stroke-miterlimit:10" />
  <path
     d="m 91.12,176.69 c 0,0 36.83,9.56 35.72,6.62 -1.11,-2.94 -22.54,-37.5 -22.54,-37.5 z"
     id="path146"
     inkscape:connector-curvature="0" />
  <path
     style=""
     d="m 100.89999,184.16 h 8.09 v 10.83 h -8.09 z"
     id="rect148" />
  <path
     transform="scale(-1)"
     style=""
     d="m -104.84,-226.31 h 11.000004 v 11 H -104.84 Z"
     id="rect150" />
  <path
     class="cls-15"
     d="m 185.34,227.81 h -34 l 32,-57 v -3 l -33,-26 v -7 l 19,-11 3,-3 -14,-33 3,-2 v -23 l 28,2 2,23 28.5,-5.5 6.5,13.5 29.5,4.5 15.5,63.5 h -4 l -5,43 0.5,0.5 c 0,0 -36.5,-5.5 -39.5,-7.5 -3,-2 -4,-74 -4,-74 l -27,-14 c 0,0 4,99 1,102 -3,3 -8,14 -8,14 z"
     id="path152"
     inkscape:connector-curvature="0"
     style="opacity:1;fill:#ffffff;fill-opacity:1" />
  <path
     class="cls-16"
     d="m 220.34,96.81 5,-38 26,1 c 0,0 -1,21.12 -2,22 -1,0.88 -29,15 -29,15 z"
     id="path154"
     inkscape:connector-curvature="0"
     style="fill:#e93400;stroke:#000000;stroke-miterlimit:10" />
  <path
     d="m 222.84,60.31 c 0,0 32.66,0.76 32,-1 -0.66,-1.76 -18.07,-20 -18.07,-20 z"
     id="path156"
     inkscape:connector-curvature="0" />
  <path
     style=""
     d="m 230.72,63.320011 h 4.86 v 6.5 h -4.86 z"
     id="rect158" />
  <path
     transform="translate(-38.16,-269.69)"
     style="opacity:1;fill:#ffffff;fill-opacity:1;stroke:#000000;stroke-miterlimit:10"
     d="m 316.5,343.5 -1,-39 122,-30 -3,68 -36,3 -21.12,66.5 -36.88,-0.5 8,-62 -30,2 z"
     id="polygon160" />
  <path
     transform="translate(-38.16,-269.69)"
     style="fill:#33d36c;stroke:#000000;stroke-miterlimit:10"
     d="M 355.29,458.56 330.5,469.5 340.58,412 380.5,416.99 Z"
     id="polygon162" />
  <path
     style=""
     d="m 308.34,149.25 h 14 v 7.09 h -14 z"
     id="rect164" />
  <path
     transform="translate(-38.16,-269.69)"
     style="stroke:#33d36c;stroke-miterlimit:10"
     d="m 340.5,462.5 2.33,-23.32 13.17,2.77 -1.51,18.8"
     id="polyline166" />
  <path
     transform="translate(-38.16,-269.69)"
     style=""
     d="M 363.54,389.5 381,420 341,412 Z"
     id="polygon168" />
  <path
     transform="translate(-38.16,-269.69)"
     style="opacity:1;fill:#ffffff;fill-opacity:1"
     d="m 506.5,392.5 -10,46 5,5 -11,47 -62,26 8,-33 -1,-3 -5,-8 45,-112 38.5,8.5 -1.5,4.5 18,9 -4,-9 40,-5 38,129 -8,8 -50,-17 -16,-87 z"
     id="polygon170" />
  <path
     class="cls-19"
     d="m 689.65,144.81 c 0,0 13.69,-12 13.69,-13 0,-1 3.5,-27.5 3.5,-27.5 l -112,-4 61.5,-42.5 -5,32 33,-4 12,-66 -19,3 -2,-17 -33,6 -85,82 c 0,0 10,35 15,36 5,1 91,0 91,0 l -3.64,2.85 5.71,2.65 5.93,-8.5 z"
     id="path172"
     inkscape:connector-curvature="0"
     style="opacity:1;fill:#ffffff;fill-opacity:1" />
  <path
     transform="translate(-38.16,-269.69)"
     style="fill:#33d36c;stroke:#000000;stroke-miterlimit:10"
     d="m 706.5,406.5 -14,-6 -22.14,21.21 32.14,3.79 z"
     id="polygon174" />
  <path
     class="cls-2"
     d="m 659.7,158.76 3.35,-16 24.42,2.24 c 0,0 -0.48,11.53 -1.92,12.28 -1.44,0.75 -25.85,1.48 -25.85,1.48 z"
     id="path176"
     inkscape:connector-curvature="0"
     style="fill:#dd2671;stroke:#000000;stroke-miterlimit:10" />
  <path
     d="m 659.7,142.75 c 0,0 32.08,4.84 31.12,3.35 -0.96,-1.49 -19.63,-19 -19.63,-19 z"
     id="path178"
     inkscape:connector-curvature="0" />
  <path
     style=""
     d="m 668.22003,146.53 h 7.05 v 5.48 h -7.05 z"
     id="rect180" />
  <path
     transform="translate(-38.16,-269.69)"
     style="fill:#e9a400;stroke:#000000;stroke-miterlimit:10"
     d="m 83,459 h 2 l -22,53 48,6 -8.95,-59 z"
     id="polygon182" />
  <path
     transform="translate(-38.16,-269.69)"
     style="fill:#daff15;stroke:#000000;stroke-miterlimit:10"
     d="m 58.54,508 -4.3,-43.77 H 87.35 L 99,500.58 Z"
     id="polygon184" />
  <path
     transform="translate(-38.16,-269.69)"
     style=""
     d="M 47.5,464.23 H 93.48 L 87.35,439 l -37.4,5.19 z"
     id="polygon186" />
  <path
     transform="translate(-38.16,-269.69)"
     style=""
     d="m 81.53,503.78 -13.87,2.55 -2.69,-20.22 h 11.65 z"
     id="polygon188" />
  <path
     d="m 45.34,202.37 c 18.37,-12.78 30.35,-21.56 30.35,-21.56 l 27.15,21.56 z"
     id="path190"
     inkscape:connector-curvature="0" />
  <path
     transform="translate(-38.16,-269.69)"
     style="fill:#dd2671;stroke:#000000;stroke-miterlimit:10"
     d="m 83.5,511.19 11.98,-39.13 h 22.36 l 15.66,47.44 z"
     id="polygon192" />
  <path
     style=""
     d="m 63.34,214.81 h 11 v 27 h -11 z"
     id="rect194" />
  <path
     class="cls-4"
     d="m 4.34,237.37 c 0,-1.22 3.84,-26.84 3.84,-26.84 l 13.66,-1.22 3,30.5 z"
     id="path196"
     inkscape:connector-curvature="0"
     style="fill:#33d36c;stroke:#000000;stroke-miterlimit:10" />
  <path
     transform="translate(-38.16,-269.69)"
     style=""
     d="m 64.5,480.5 h -19 l 1,-18.5 16,3.7 7,1.23 z"
     id="polygon198" />
  <path
     style=""
     d="m 14.34,227.81 h 5 v 10 h -5 z"
     id="rect200" />
  <path
     transform="translate(-38.16,-269.69)"
     style="fill:#dd2671;stroke:#000000;stroke-miterlimit:10"
     d="m 496.5,327.5 13,-32 37,1 6.93,24.76 z"
     id="polygon202" />
  <path
     transform="translate(-38.16,-269.69)"
     style=""
     d="M 536,323.59 524,324 v -12 h 11 z"
     id="polygon204" />
  <path
     d="m 464.84,28.31 c 16.15,-11.24 24,-16 24,-16 l 22,16 z"
     id="path206"
     inkscape:connector-curvature="0" />
</svg>
