<?xml version="1.0" encoding="UTF-8" standalone="no"?>
<svg
   xmlns:dc="http://purl.org/dc/elements/1.1/"
   xmlns:cc="http://creativecommons.org/ns#"
   xmlns:rdf="http://www.w3.org/1999/02/22-rdf-syntax-ns#"
   xmlns:svg="http://www.w3.org/2000/svg"
   xmlns="http://www.w3.org/2000/svg"
   xmlns:sodipodi="http://sodipodi.sourceforge.net/DTD/sodipodi-0.dtd"
   xmlns:inkscape="http://www.inkscape.org/namespaces/inkscape"
   id="Layer_1"
   data-name="Layer 1"
   viewBox="0 0 733.84003 344.2482"
   version="1.1"
   sodipodi:docname="logo.svg"
   width="733.84003"
   height="344.2482"
   inkscape:version="0.92.5 (2060ec1f9f, 2020-04-08)">
  <metadata
     id="metadata211">
    <rdf:RDF>
      <cc:Work
         rdf:about="">
        <dc:format>image/svg+xml</dc:format>
        <dc:type
           rdf:resource="http://purl.org/dc/dcmitype/StillImage" />
        <dc:title></dc:title>
      </cc:Work>
    </rdf:RDF>
  </metadata>
  <sodipodi:namedview
     pagecolor="#ffffff"
     bordercolor="#666666"
     borderopacity="1"
     objecttolerance="10"
     gridtolerance="10"
     guidetolerance="10"
     inkscape:pageopacity="0"
     inkscape:pageshadow="2"
     inkscape:window-width="1294"
     inkscape:window-height="704"
     id="namedview209"
     showgrid="false"
     fit-margin-top="0"
     fit-margin-left="0"
     fit-margin-right="0"
     fit-margin-bottom="0"
     inkscape:zoom="0.834386"
     inkscape:cx="373.10151"
     inkscape:cy="182.87023"
     inkscape:window-x="72"
     inkscape:window-y="27"
     inkscape:window-maximized="1"
     inkscape:current-layer="Layer_1" />
  <defs
     id="defs4">
    <style
       id="style2">.cls-1,.cls-6{fill:#daff15;}.cls-1,.cls-13,.cls-14,.cls-16,.cls-17,.cls-2,.cls-3,.cls-4,.cls-5,.cls-6,.cls-7{stroke:#000;}.cls-1,.cls-13,.cls-14,.cls-16,.cls-17,.cls-18,.cls-2,.cls-3,.cls-4,.cls-5,.cls-6,.cls-7{stroke-miterlimit:10;}.cls-1{opacity:0.35;}.cls-2{fill:#dd2671;}.cls-3{fill:#dd2600;}.cls-4{fill:#33d36c;}.cls-5{fill:#4a6ed3;}.cls-7{font-size:77.2px;stroke-width:2px;font-family:FriendlySchoolmates, Friendly Schoolmates;}.cls-15,.cls-17,.cls-19,.cls-7{fill:#17a7c9;}.cls-8{letter-spacing:-0.02em;}.cls-9{letter-spacing:-0.01em;}.cls-10{letter-spacing:0em;}.cls-11{letter-spacing:-0.04em;}.cls-12{letter-spacing:0.01em;}.cls-13{fill:#e9a400;}.cls-14{fill:#e87089;}.cls-15,.cls-17{opacity:0.45;}.cls-16{fill:#e93400;}.cls-18{stroke:#33d36c;}.cls-19{opacity:0.44;}</style>
  </defs>
  <path
     class="cls-2"
     d="m 210.34,35.94 c 0,-1.76 -2,-26.13 -2,-26.13 l 32,-4 -4.69,18.36 21.19,2.36 -2.35,13.53 z"
     id="path8"
     inkscape:connector-curvature="0"
     style="fill:#dd2671;stroke:#000000;stroke-miterlimit:10" />
  <rect
     x="217.39999"
     y="21.230013"
     width="8.8299999"
     height="8.8299999"
     id="rect10" />
  <polygon
     class="cls-3"
     points="246.5,279.5 248.44,304.47 199.5,298.5 200.19,289.49 200.5,285.5 "
     id="polygon12"
     style="fill:#dd2600;stroke:#000000;stroke-miterlimit:10"
     transform="translate(-38.16,-269.69)" />
  <polygon
     points="247,290 199.5,289.5 200.5,285.5 246.5,279.5 "
     id="polygon14"
     transform="translate(-38.16,-269.69)" />
  <rect
     x="169.84"
     y="22.309999"
     width="7"
     height="2"
     id="rect16" />
  <rect
     x="192.84"
     y="27.309999"
     width="2"
     height="5"
     id="rect18" />
  <polygon
     class="cls-4"
     points="274.03,293 279,276 295,288 295,297 "
     id="polygon20"
     style="fill:#33d36c;stroke:#000000;stroke-miterlimit:10"
     transform="translate(-38.16,-269.69)" />
  <rect
     x="244.34"
     y="14.81"
     width="2"
     height="5"
     id="rect22" />
  <rect
     x="245.34"
     y="42.810001"
     width="3"
     height="3"
     id="rect24" />
  <rect
     x="468.34"
     y="12.81"
     width="7"
     height="2"
     id="rect26" />
  <rect
     x="502.84"
     y="14.31"
     width="4"
     height="6"
     id="rect28" />
  <rect
     x="457.84"
     y="29.309999"
     width="6"
     height="6"
     id="rect30" />
  <rect
     x="642.34003"
     y="142.81"
     width="12"
     height="4"
     id="rect32" />
  <polygon
     class="cls-3"
     points="641.5,496.5 693,462 649.89,439 618,451 633,490 "
     id="polygon34"
     style="fill:#dd2600;stroke:#000000;stroke-miterlimit:10"
     transform="translate(-38.16,-269.69)" />
  <path
     d="m 582.98,169.31 c 18.37,-12.78 30.35,-21.56 30.35,-21.56 l 27.15,21.56 z"
     id="path36"
     inkscape:connector-curvature="0" />
  <polygon
     class="cls-5"
     points="626.5,466.5 635.5,437.5 658.5,436.5 664.5,475.5 "
     id="polygon38"
     style="fill:#4a6ed3;stroke:#000000;stroke-miterlimit:10"
     transform="translate(-38.16,-269.69)" />
  <polygon
     points="652,472 641.14,470.19 641.14,443.19 652.14,443.19 "
     id="polygon40"
     transform="translate(-38.16,-269.69)" />
  <path
     class="cls-6"
     d="m 623.21,195.2 10.13,-34.39 39,5 -26,25.46 a 7.42,7.42 0 0 1 -5.31,2.75 z"
     id="path42"
     inkscape:connector-curvature="0"
     style="fill:#daff15;stroke:#000000;stroke-miterlimit:10" />
  <polygon
     points="665.87,435 710,435 719,424 667.68,420.57 "
     id="polygon44"
     transform="translate(-38.16,-269.69)" />
  <polygon
     points="679,464 669,465 677,449 686,450 "
     id="polygon46"
     transform="translate(-38.16,-269.69)" />
  <rect
     x="80.839996"
     y="171.31"
     width="5"
     height="6"
     id="rect48" />
  <path
     d="M 100.37,0.39 101.29,0 h 0.85 l 0.46,0.84 0.38,0.85 0.46,0.46 0.47,0.84 0.45,0.47 0.39,0.45 0.46,0.85 0.46,0.46 0.38,0.38 0.46,0.46 0.47,0.92 0.38,0.39 0.46,0.46 0.46,0.46 0.46,0.84 0.38,0.46 0.46,0.39 0.39,0.92 0.46,0.46 0.46,0.38 0.46,0.46 0.38,0.85 0.46,0.46 0.46,0.46 0.39,0.84 0.46,0.46 0.46,0.39 0.38,0.46 0.46,0.84 0.46,0.46 0.38,0.46 0.47,0.38 0.46,0.93 0.46,0.46 0.38,0.38 0.46,0.84 0.46,0.46 0.38,0.46 0.46,0.46 0.47,0.85 0.38,0.46 0.46,0.46 0.46,0.84 0.46,0.39 0.38,0.46 0.46,0.46 0.39,0.84 0.46,0.46 0.46,0.46 0.46,0.46 0.38,0.85 0.46,0.38 0.46,0.46 0.46,0.92 0.39,0.39 0.46,0.46 0.38,0.46 0.46,0.84 0.46,0.46 0.46,0.38 0.39,0.93 0.46,0.38 0.46,0.46 0.38,0.46 0.46,0.84 0.46,0.47 0.38,0.38 0.47,0.46 0.46,0.92 0.38,0.39 0.46,0.45 0.46,0.85 0.46,0.46 0.38,0.46 0.47,0.38 0.38,0.92 0.46,0.47 0.46,0.38 0.46,0.46 0.39,0.84 0.45,0.46 0.47,0.46 0.45,0.85 0.39,0.46 0.46,0.46 0.38,0.38 0.47,0.85 0.45,0.46 0.47,0.46 0.38,0.84 0.46,0.46 0.46,0.85 0.46,0.92 0.38,1.3 0.46,0.85 0.39,0.92 0.46,0.84 0.46,1.3 0.46,0.85 0.38,0.92 0.46,1.3 0.46,0.85 0.39,0.92 0.46,0.84 0.46,1.31 0.38,0.84 0.46,0.92 0.46,1.31 0.39,0.84 0.46,0.92 0.46,0.84 0.46,1.31 0.38,0.84 0.46,0.92 0.39,1.31 0.46,0.84 0.46,0.85 0.46,0.92 0.38,1.3 0.46,0.92 0.46,0.85 0.46,1.3 0.39,0.85 0.46,0.92 0.38,0.84 0.46,1.31 0.46,0.92 0.46,0.84 0.38,1.31 0.46,0.84 0.47,0.92 0.46,0.85 0.38,1.3 0.46,0.84 0.38,0.93 0.46,0.84 0.46,1.3 0.46,0.92 0.39,0.85 0.46,1.3 0.46,0.85 0.38,0.92 0.46,0.84 0.46,1.38 0.39,0.85 0.46,0.84 0.46,1.3 0.38,0.85 0.46,0.85 0.46,0.92 0.46,1.3 0.39,0.92 0.46,0.85 0.38,1.3 0.46,0.84 0.46,0.93 0.46,0.84 0.39,1.3 0.46,0.85 0.46,0.92 v 0.84 l -0.46,1.31 -0.46,1.3 -0.85,0.46 -0.92,0.46 -0.84,0.46 -0.85,0.39 -0.92,0.46 -0.84,0.38 -0.85,0.46 -0.92,0.46 -0.84,0.46 -0.46,0.39 -0.85,0.46 -0.92,0.46 -0.84,0.38 -0.84,0.46 -0.93,0.46 -0.84,0.38 -0.92,0.46 -0.84,0.47 -0.85,0.46 -0.46,0.38 -0.84,0.46 -0.92,0.38 -0.85,0.46 -0.84,0.46 -0.92,0.46 -0.85,0.39 -0.92,0.46 -0.84,0.46 -0.85,0.38 -0.92,0.46 -0.38,0.46 -0.46,0.39 0.46,0.46 0.38,0.46 0.92,0.38 0.39,0.46 0.46,0.46 0.84,0.46 0.46,0.39 0.46,0.46 0.85,0.38 0.46,0.46 0.84,0.46 0.46,0.46 0.39,0.39 0.92,0.45 0.46,0.47 0.38,0.46 0.92,0.38 0.46,0.46 0.39,0.38 0.84,0.47 0.46,0.45 0.46,0.47 0.84,0.38 0.46,0.46 0.47,0.46 0.84,0.46 0.46,0.39 0.38,0.45 0.92,0.39 0.46,0.46 0.39,0.46 0.92,0.46 0.38,0.38 0.46,0.47 0.46,0.45 0.85,0.39 0.46,0.46 0.38,0.46 0.92,0.38 0.46,0.46 0.39,0.47 0.84,0.38 0.46,0.46 0.46,0.46 0.85,0.38 0.46,0.46 0.46,0.46 0.46,0.39 0.84,0.46 0.38,0.46 0.47,0.46 0.92,0.38 0.38,0.46 0.46,0.46 0.92,0.39 0.39,0.46 0.45,0.46 0.39,0.38 0.92,0.46 0.46,0.46 0.38,0.46 0.92,0.39 0.39,0.46 0.46,0.38 0.84,0.46 0.46,0.46 0.47,1.31 v 1.76 l -0.47,0.84 -0.46,0.92 -0.38,0.85 -0.46,0.84 -0.46,0.46 -0.39,0.85 -0.45,0.92 -0.47,0.84 -0.38,0.92 -0.46,0.85 -0.46,0.84 -0.46,0.46 -0.39,0.84 -0.45,0.93 -0.39,0.84 -0.46,0.85 -0.46,0.92 -0.46,0.46 -0.38,0.84 -0.47,0.85 -0.45,0.92 -0.47,0.84 -0.38,0.92 -0.46,0.84 -0.38,0.39 -0.46,0.92 -0.46,0.84 -0.46,0.92 -0.39,0.85 -0.46,0.84 -0.46,0.46 -0.46,0.85 -0.38,0.92 -0.46,0.84 -0.39,0.85 -0.46,0.92 -0.46,0.46 -0.46,0.84 -0.38,0.92 -0.46,0.85 -0.46,0.84 -0.39,0.92 -0.46,0.85 -0.46,0.46 -0.38,0.84 -0.46,0.84 -0.46,0.89 -0.39,0.85 -0.46,0.92 -0.46,0.38 -0.46,0.92 -0.38,0.85 -0.46,0.84 -0.38,0.92 -0.46,0.85 -0.47,0.84 -0.46,0.46 -0.38,0.92 -0.46,0.85 -0.46,0.84 -0.46,0.92 -0.38,0.85 -0.46,0.46 -0.39,0.84 -0.46,0.85 -0.46,0.92 -0.46,0.84 -0.38,0.92 -0.46,0.84 -0.46,0.47 -0.46,0.84 -0.39,0.92 -0.46,0.84 -0.38,0.85 -0.46,0.92 -0.46,0.38 -0.46,0.92 -0.39,0.85 -0.46,0.92 -0.46,0.84 -0.38,0.85 -0.46,0.46 -0.46,0.84 -0.39,0.92 -0.46,0.85 -0.46,0.84 -0.38,0.92 -0.46,0.85 -0.46,0.46 -0.46,0.84 -0.39,0.92 -0.46,0.84 -0.38,0.93 -0.46,0.84 -0.46,0.38 -0.46,0.92 -0.38,0.85 -0.47,0.92 -0.45,0.84 -0.47,0.85 -0.38,0.92 -0.46,0.38 -0.39,0.92 -0.45,0.46 -0.47,0.39 -0.84,0.46 H 96 l -3.45,-0.46 -3.53,-0.39 -3.46,-0.46 -3.53,-0.46 -3.07,-0.46 -3.45,-0.38 -3.45,-0.46 -3.53,-0.46 -3.53,-0.39 -3.45,-0.46 -3.54,-0.46 -3.45,-0.38 -3.07,-0.46 -3.53,-0.46 -3.45,-0.39 -3.53,-0.46 -3.45,-0.46 -3.53,-0.46 -3.53,-0.37 -3.38,-0.46 -3.45,-0.38 -3.07,-0.46 -3.53,-0.47 -3.53,-0.46 L 10.05,242.7 6.6,242.31 3.07,241.85 0,241.31 v -2.15 l 0.46,-3.45 0.38,-3.5 0.46,-3.45 0.46,-3.54 0.46,-3.52 0.38,-3.92 0.46,-3.45 0.46,-3.53 0.46,-3.46 0.39,-3.53 0.46,-3.45 0.38,-3.53 0.46,-3.45 0.46,-3.53 0.46,-3.45 0.39,-3.54 0.46,-3.45 0.46,-3.53 0.38,-3.91 0.46,-3.45 0.46,-3.53 0.38,-3.53 0.46,-3.46 0.46,-3.53 0.39,-3.45 0.46,-3.53 0.46,-3.45 0.46,-3.53 0.38,-3.46 0.46,-3.53 0.39,-3.45 0.46,-4 0.46,-3.45 0.46,-3.53 0.38,-3.46 0.46,-3.45 0.46,-3.53 0.46,-3.45 0.39,-3.53 0.46,-3.46 1.3,-0.46 3.46,-0.46 3.07,-0.38 0.92,-0.46 0.38,-1.77 0.46,-1.76 0.46,-1.69 0.38,-1.76 0.47,-1.77 0.45,-1.76 0.47,-1.69 0.38,-1.77 0.46,-1.76 0.31,-1.77 0.46,-2.14 0.46,-1.77 0.46,-1.73 0.38,-1.68 0.46,-1.77 0.46,-1.76 0.46,-1.77 0.39,-1.69 0.46,-1.76 0.38,-1.77 0.46,-2.14 0.46,-1.77 0.46,-1.76 0.39,-1.77 0.46,-1.69 0.46,-1.76 0.46,-1.77 0.38,-1.76 0.46,-1.77 0.38,-1.69 0.47,-1.76 0.47,-2.16 0.46,-1.76 0.38,-1.77 0.46,-1.77 0.46,-1.68 0.38,-1.77 0.46,-1.76 0.47,-0.39 0.84,-0.46 0.84,-0.46 0.92,-0.46 0.85,-0.38 0.84,-0.46 0.92,-0.46 0.85,-0.46 0.92,-0.39 0.84,-0.46 0.85,-0.38 0.92,-0.46 0.84,-0.46 0.92,-0.46 0.85,-0.39 0.84,-0.46 1.38,-0.46 0.85,-0.46 0.84,-0.38 0.92,-0.46 0.84,-0.38 0.85,-0.46 0.92,-0.47 0.85,-0.46 0.84,-0.38 0.92,-0.46 0.84,-0.46 0.92,-0.38 0.85,-0.46 0.84,-0.46 0.93,-0.37 0.85,-0.46 0.92,-0.46 0.84,-0.38 0.85,-0.46 0.92,-0.46 0.84,-0.39 0.92,-0.46 0.85,-0.46 0.84,-0.38 1.3,-0.46 0.93,-0.46 0.84,-0.46 L 81.58,9.63 82.5,9.17 83.35,8.79 84.27,8.33 85.11,7.87 85.96,7.41 86.88,7.02 87.72,6.56 88.64,6.1 89.49,5.64 90.33,5.26 91.25,4.8 92.1,4.42 93.02,3.95 93.86,3.5 94.71,3.03 95.63,2.65 96.47,2.19 97.39,1.73 98.23,1.27 99.54,0.88 Z M 70.45,65.92 q 0.84,0.3 5.67,6.52 4.83,6.22 10.44,13.58 5.59,7.38 10.29,13.47 c 3.11,4.07 4.88,6.1 5.29,6.1 q 1.84,0 15.92,-8.25 14.08,-8.25 18.15,-9.17 l -36.14,-83 Q 96.7,6.02 85.45,11.73 l -15.31,7.79 -7.37,3.69 -7.21,3.6 -3.72,1.7 c -1.18,0.54 -2.4,1.11 -3.68,1.73 -1.28,0.62 -2.44,3.09 -3.46,7.44 q -2.29,9 -4.29,17.61 -2,8.61 -4.3,17.54 c -0.72,2.76 -1.47,5.63 -2.26,8.63 -0.79,3 -1.48,5.94 -2,8.86 a 54.21,54.21 0 0 1 -2.19,8.83 q -0.87,2.07 -8.55,2.07 l -16.96,136.67 91,11.58 55.69,-102.36 -27.62,-20.65 -60.86,64.31 z"
     id="path50"
     inkscape:connector-curvature="0" />
  <path
     d="m 237.35,2.31 3.3,-0.38 h 1.69 l 0.38,0.38 0.85,0.46 0.38,0.39 0.46,0.38 0.39,0.38 0.38,0.39 0.46,0.38 0.38,0.39 0.46,0.46 0.39,0.38 0.38,0.38 0.84,0.39 0.46,0.38 0.39,0.46 0.38,0.31 0.46,0.46 0.38,0.38 0.39,0.39 0.46,0.38 0.38,0.38 0.46,0.46 0.77,0.39 0.46,0.38 0.39,0.39 0.46,0.38 0.38,0.38 0.38,0.39 0.46,0.46 0.39,0.38 0.38,0.38 0.46,0.39 0.39,0.38 0.84,0.38 0.38,0.39 0.46,0.46 0.39,0.38 0.46,0.39 0.38,0.38 0.38,1.61 0.46,1.54 0.39,1.22 0.38,1.16 0.46,1.22 0.38,1.15 0.47,1.23 0.38,1.61 0.38,1.15 0.47,1.15 0.38,1.23 0.46,1.15 0.38,1.61 0.39,1.16 0.46,1.22 0.38,1.16 0.38,1.22 0.46,1.54 0.39,1.23 0.46,1.15 0.38,1.22 0.39,1.15 0.45,1.62 0.39,1.15 0.46,1.22 0.38,1.16 0.39,1.22 0.46,1.16 0.38,1.61 0.39,1.15 0.46,1.23 0.46,1.15 0.38,1.23 0.38,1.53 0.39,1.23 0.46,1.15 0.38,1.15 0.46,1.23 0.39,1.61 0.45,1.15 0.39,1.23 0.38,1.15 0.39,1.23 0.46,1.53 0.46,1.23 0.38,1.15 0.39,1.23 0.46,1.15 0.38,1.23 0.38,1.53 0.46,1.23 0.39,1.15 v 2.38 l -0.39,4 -0.46,3.91 -0.38,3.53 -0.38,4 -0.46,3.53 -0.39,4 -0.38,3.92 -0.46,3.53 -0.46,4 -0.39,3.53 -0.38,4 -0.39,4 -0.45,3.53 v 1.61 l 0.45,1.15 0.39,0.84 0.38,1.15 0.39,0.77 0.46,0.85 0.46,1.15 0.38,0.77 0.39,1.22 0.46,0.77 0.38,0.77 0.38,1.23 0.46,0.76 0.39,1.23 0.46,1.15 0.38,1.61 0.38,2 0.47,1.54 0.38,2 0.46,2 0.38,1.53 0.39,2 0.46,1.62 0.38,1.92 0.38,1.61 0.47,2 0.38,2 0.46,1.53 0.38,2 0.39,1.61 0.46,1.92 0.38,1.61 0.46,2 0.38,1.61 0.39,1.92 0.46,2 0.38,1.61 0.39,1.92 0.46,1.61 0.38,2 0.46,1.61 0.38,1.92 0.39,2 0.46,1.61 0.38,2 0.46,1.53 0.39,2 0.38,1.54 0.46,2 0.39,1.61 0.38,2 0.46,2 0.38,1.53 0.46,2 0.39,1.53 0.38,2 0.46,1.61 0.38,1.92 0.46,2 0.39,1.61 0.38,2 0.46,1.53 0.38,2 0.39,1.61 v 1.61 l -0.77,0.39 -0.46,0.38 -0.38,0.77 h -2.07 l -2.07,-0.39 -2.08,-0.38 -2.07,-0.38 -2.07,-0.54 -2.07,-0.46 -2.08,-0.38 -2,-0.38 -2.53,-0.39 -2.07,-0.38 -2.08,-0.46 -2.07,-0.39 -2,-0.38 -2.1,-0.38 -2.07,-0.39 -2.08,-0.38 -2,-0.39 -2.07,-0.46 -2.08,-0.38 -2.07,-0.39 -2.07,-0.38 -2.45,-0.38 -2.08,-0.38 -2.07,-0.47 -0.84,-0.38 -0.39,-0.38 -0.46,-0.39 -0.38,-0.38 -0.46,-0.46 -0.38,-0.31 -0.39,-0.46 -0.46,-0.38 -0.38,-0.39 -0.46,-0.38 -0.38,-0.38 -0.39,-0.46 -0.46,-0.77 -0.38,-0.38 -0.39,-0.39 -0.46,-0.38 -0.38,-0.39 -0.46,-0.46 -0.39,-0.38 -0.38,-0.38 -0.46,-0.39 -0.38,-0.38 -0.46,-0.39 -0.39,-0.38 -0.38,-0.46 -0.46,-0.38 -0.39,-0.39 -0.38,-0.38 -0.46,-0.77 -0.38,-0.38 -0.46,-0.46 -0.39,-0.39 -0.38,-0.38 -0.46,-0.38 -0.46,-0.39 -0.39,-0.38 -0.38,-0.38 -0.38,-0.46 -0.46,-0.39 -0.39,-0.38 -0.38,-0.38 -0.46,-0.39 -0.46,-0.46 -0.39,-0.38 -0.23,-0.85 0.23,19.5 v 6.33 l -0.38,1.23 -0.38,0.76 -0.46,1.15 -0.46,0.85 -0.39,0.77 -0.38,0.76 -0.46,0.85 -0.39,1.15 -0.38,0.77 -0.46,0.84 -0.38,0.77 -0.46,0.77 -0.39,0.76 -0.38,1.23 -0.46,0.77 -0.38,0.84 -1.23,0.39 -0.49,0.34 -4.15,0.38 -13.58,0.39 -13.28,0.38 h -7.82 l -0.85,-0.38 -0.84,-0.39 -0.38,-0.38 -0.85,-0.38 -0.84,-0.39 -0.77,-0.38 -0.85,-0.46 -0.79,-0.39 -0.38,-0.38 -0.85,-0.38 -0.84,-0.39 -0.84,-0.46 -0.77,-0.31 -0.84,-0.45 -0.47,-0.39 -0.76,-0.38 -0.85,-0.39 -0.84,-0.38 -0.85,-0.46 -0.76,-0.38 -0.39,-0.39 -0.84,-0.38 -0.77,-0.39 -0.84,-0.38 -0.85,-0.38 -0.84,-0.47 -0.38,-0.38 -0.85,-0.38 -0.84,-0.38 -0.77,-0.39 -0.85,-0.38 -0.84,-0.38 -0.38,-0.47 -0.85,-0.38 -0.84,-0.38 -0.84,-0.39 -0.77,-0.38 -0.84,-0.38 -0.39,-0.39 -0.84,-0.46 -0.85,-0.38 -0.84,-0.38 -0.85,-0.39 -0.76,-0.38 -0.46,-0.46 -0.77,-0.39 -0.92,-0.38 -0.77,-0.38 -0.84,-0.39 -0.85,-0.38 -0.38,-0.39 -0.84,-0.46 -0.77,-0.38 -0.92,-0.39 -0.77,-0.38 -0.85,-0.38 -0.45,-0.38 -0.77,-0.47 -0.85,-0.38 -1.68,-0.38 v -2.38 l 0.46,-3.92 0.38,-4.37 0.46,-4.37 0.38,-4.38 0.39,-3.91 0.46,-4.38 0.38,-4.29 0.39,-4.38 0.45,-4 0.39,-4.29 0.46,-4.38 0.38,-4.37 0.39,-3.91 0.46,-4.38 0.46,-4.37 0.38,-4.3 0.39,-4 0.38,-4.38 0.46,-4.37 0.38,-4.3 0.39,-4 0.46,-4.37 0.46,-4.3 0.38,-4.37 0.39,-4 0.38,-4.3 0.46,-4.37 0.46,-4.38 0.38,-3.91 0.39,-4.3 0.46,-4.37 0.38,-4.38 0.38,-2.37 0.46,-0.39 0.39,-0.77 0.46,-0.38 0.38,-0.46 0.39,-0.38 0.46,-0.39 0.38,-0.38 0.46,-0.39 0.39,-0.38 0.38,-0.38 0.46,-0.85 0.38,-0.38 0.39,-0.38 0.46,-0.39 0.38,-0.46 0.46,-18.95 0.38,-22.95 0.34,-22.93 0.46,-6.29 0.38,-0.46 2.92,-0.39 2.91,-0.38 3.23,-0.38 2.84,-0.39 2.91,-0.38 2.92,-0.39 3.3,-0.46 2.84,-0.38 2.91,-0.38 2.92,-0.39 3.3,-0.38 2.92,-0.46 2.91,-0.31 2.84,-0.46 3.3,-0.38 2.92,-0.39 2.91,-0.38 2.84,-0.38 3.38,-0.46 2.84,-0.39 2.91,-0.38 2.92,-0.39 3.3,-0.38 2.84,-0.38 2.91,-0.39 z m 3.3,3.23 -78,10.35 -1.23,69.61 -6.58,7.43 -13.34,135.44 44.59,-1.38 a 17.62,17.62 0 0 1 2.11,-5.22 45.88,45.88 0 0 0 2.65,-5.22 41,41 0 0 0 2.11,-5.71 c 0.12,-0.74 0.19,-3.26 0.19,-7.56 q 0,-7.37 0,-15.24 0,-7.87 -0.5,-14.84 a 134.43,134.43 0 0 1 -0.27,-15 q 0.27,-8.37 0.27,-15.43 0,-7.37 -0.19,-15 -0.19,-7.63 -0.12,-15.69 l 27.63,12.5 q 0,8.68 0.61,17.39 0.61,8.71 0.62,17.46 -0.09,8.28 0.38,17.45 0.47,9.17 0.84,17.77 c 0.11,3.53 1.13,5.44 3.07,5.75 1.44,0.26 2.74,0.5 3.92,0.73 1.18,0.23 2.53,0.47 4.06,0.73 q 3.69,0.62 7.83,1.46 4.14,0.84 8.06,1.53 3.92,0.86 7.82,1.54 c 2.62,0.46 5.3,0.94 8.06,1.46 q 3.45,0.69 8.06,1.68 a 55.55,55.55 0 0 0 8,1.23 L 256.38,101.99 221.54,95.08 249.01,81.5 256.15,18.72 Z m -49.34,81.87 -3.76,-55 37.83,4 -5.3,45.51 z"
     id="path52"
     inkscape:connector-curvature="0" />
  <path
     d="m 400.03,0.39 2,-0.39 h 1.23 l 0.46,3.15 0.38,1.84 0.38,1.84 0.46,1.84 0.39,1.77 0.38,1.38 0.38,1.84 0.47,1.84 0.38,1.84 0.38,1.85 0.39,1.76 0.46,1.84 0.38,1.38 0.38,1.84 0.47,1.85 0.38,1.84 0.38,1.76 0.46,1.84 0.39,1.85 0.38,1.84 0.46,1.38 0.38,1.84 0.39,1.76 0.46,1.85 0.38,1.84 0.39,1.84 0.46,1.84 0.38,1.77 0.38,1.38 0.39,1.84 0.38,1.84 0.46,1.84 0.39,1.85 0.38,1.76 0.46,1.84 0.38,1.39 v 6.46 l -0.38,9 -0.46,9.21 -0.38,9.6 -0.39,9.05 -0.46,9.24 -0.38,7.75 -0.77,0.46 -0.38,0.92 -0.46,0.38 -8.14,0.54 -10.59,0.39 -9,0.46 -0.38,0.92 -0.38,1.38 -0.47,0.92 -0.3,1.38 -0.46,0.92 -0.39,1.38 -0.38,1.38 -0.46,0.92 -0.38,1.31 -0.39,0.92 -0.46,1.38 -0.38,0.92 -0.39,1.38 -0.45,0.92 -0.39,1.38 -0.38,0.85 -0.46,1.38 -0.38,1.36 -0.38,0.92 -0.46,1.38 -0.38,0.92 -0.39,1.39 -0.38,0.92 -0.46,1.38 -0.39,0.92 -0.38,1.3 -0.46,1 -0.38,1.3 -0.39,0.92 -0.46,1.39 -0.38,1.38 -0.38,0.92 -0.39,1.38 -0.46,0.85 -0.38,1.38 -0.39,0.92 -0.46,1.38 -0.38,0.92 -0.38,1.38 -0.39,0.92 -0.46,1.38 -0.38,1.38 -0.39,0.92 -0.46,1.31 h 1.23 l 1.61,0.46 1.23,0.46 1.23,0.46 1.61,0.46 1.23,0.46 1.23,0.46 1.22,0.46 0.39,1.85 0.46,0.45 0.38,0.47 0.39,0.45 0.45,0.47 0.39,0.84 0.38,0.54 0.46,0.38 0.39,0.46 0.38,0.92 0.46,0.54 0.38,0.38 0.39,0.46 0.46,0.92 0.3,0.46 0.47,0.46 0.38,0.47 0.38,0.92 0.47,0.46 0.38,0.46 0.38,0.46 0.46,0.92 0.39,0.46 0.38,0.46 0.46,0.46 0.38,0.92 0.39,0.38 0.46,0.47 0.38,0.53 0.38,0.84 0.47,0.47 0.38,0.46 0.38,0.46 0.39,0.92 0.46,0.46 0.38,0.46 0.38,0.46 0.39,0.92 0.46,0.46 0.38,0.46 0.39,0.46 0.45,0.92 0.39,0.39 0.38,0.53 0.46,0.39 0.39,0.92 0.38,0.46 v 2.76 l -0.38,1.84 -0.39,1.84 -0.46,1.39 -0.38,1.76 -0.39,1.84 -0.45,1.38 -0.39,1.84 -0.38,1.84 -0.46,1.77 -0.39,1.38 -0.38,1.84 -0.38,1.85 -0.46,1.38 -0.39,1.84 -0.38,1.77 -0.38,1.84 -0.47,1.38 -0.38,1.84 -0.38,1.84 -0.46,1.38 -0.39,1.84 -0.38,1.77 -0.46,1.84 -0.38,0.92 -0.39,0.46 h -1.22 v 0.92 h -2 l -2.92,-0.46 -2.84,-0.46 -2.84,-0.46 -2.83,-0.46 -2.84,-0.46 -2.84,-0.46 -2.92,-0.46 -2.76,-0.46 -2.92,-0.46 -2.84,-0.39 -2.84,-0.53 -2.83,-0.39 -2.85,-0.46 -2.84,-0.46 -2.91,-0.46 -2.76,-0.46 -2.92,-0.46 -2.84,-0.46 -2.84,-0.46 -2.84,-0.46 -2.84,-0.46 -2.84,-0.46 -2.91,-0.46 -2.76,-0.46 -2.92,-0.46 -2.84,-0.46 -2.84,-0.46 -2.79,-0.44 -1.23,-0.46 -0.84,-0.47 -1.15,-0.45 -0.84,-0.47 -0.85,-0.45 -1.23,-0.39 -0.76,-0.53 -0.85,-0.39 -1.23,-0.46 -0.76,-0.46 -0.85,-0.46 -1.22,-0.46 -0.77,-0.46 -0.85,-0.46 -1.15,-0.46 -0.84,-0.46 -0.77,-0.46 -1.23,-0.46 -0.76,-0.46 -0.85,-0.46 -1.23,-0.47 -0.84,-0.46 -0.77,-0.46 -1.23,-0.46 -0.84,-0.38 -0.84,-0.54 -1.15,-0.38 -0.85,-0.46 -0.84,-0.54 -1.15,-0.38 -0.85,-0.54 -0.84,-0.38 -1.23,-0.47 -0.77,-0.45 -0.84,-0.47 -1.23,-0.45 -0.77,-0.47 -0.84,-0.45 -1.23,-0.47 -0.84,-0.46 -0.77,-0.46 -1.23,-0.46 -0.76,-0.46 -0.85,-0.46 -1.23,-0.46 -1.23,-0.46 v -1.84 l 0.39,-3.61 0.46,-3.22 0.38,-3.61 0.38,-3.22 0.47,-3.68 0.38,-3.15 0.38,-3.22 0.47,-3.69 0.38,-3.22 0.38,-3.61 0.39,-3.22 0.38,-3.61 0.46,-3.22 0.38,-3.22 0.39,-3.61 0.46,-3.22 0.38,-1.38 h 3.3 l 4.07,0.46 4.07,0.46 4.06,0.46 4.07,0.46 h 0.38 l 4,-0.46 4.07,-0.46 h 1.23 v -1.38 l 0.38,-3.23 0.46,-3.6 0.39,-3.23 0.38,-3.22 0.38,-3.6 0.47,-3.23 0.38,-3.22 0.38,-3.61 0.46,-3.22 0.39,-3.22 0.38,-3.61 0.46,-3.22 0.38,-3.68 v -3.15 l -0.38,-0.46 -0.46,-0.46 -0.38,-0.46 -0.39,-0.46 -0.46,-0.46 -0.38,-0.46 -0.38,-0.47 -0.47,-0.46 -0.38,-0.46 -0.38,-0.46 -0.39,-0.46 -0.46,-0.46 -0.38,-0.92 -0.39,-0.46 -0.46,-0.46 -0.38,-0.46 -0.38,-0.38 -0.39,-0.54 -0.46,-0.38 -0.38,-0.47 -0.39,-0.45 -0.45,-0.47 -0.39,-0.45 -0.38,-0.47 -0.46,-0.46 -0.39,-0.46 -0.3,-0.92 -0.46,-0.46 -0.39,-0.38 -0.38,-0.54 -0.46,-0.38 -0.38,-0.46 -0.39,-0.46 -0.46,-0.46 -0.38,-0.46 -0.39,-0.47 -0.38,-0.46 -0.38,-0.46 -0.46,-0.46 -0.39,-0.92 -0.38,-0.46 -0.46,-0.46 -0.39,-0.46 -0.38,-0.46 -0.46,-0.46 -0.39,-0.46 -0.38,-0.46 -0.46,-0.46 -0.38,-0.46 -0.39,-0.38 -0.46,-0.54 -0.38,-0.38 -0.38,-0.92 -0.46,-0.47 -0.39,-0.46 -0.38,-0.46 -0.38,-0.46 -0.47,-0.46 -0.38,-0.46 -0.38,-0.46 -0.46,-0.46 -0.39,-0.46 -0.38,-0.46 -1.23,-0.46 -0.38,-9.59 -0.46,-9.14 -0.38,-9.59 -0.39,-9.59 -0.46,-9.13 V 31 l 1.69,-0.38 2,-0.54 1.61,-0.38 2.08,-0.46 2,-0.54 1.69,-0.38 2,-0.46 2,-0.46 1.69,-0.47 1.92,-0.45 2.07,-0.47 1.61,-0.45 2.07,-0.47 2,-0.46 2.07,-0.46 1.61,-0.46 2,-0.46 2.07,-0.46 1.5,-0.48 2,-0.46 2.08,-0.46 1.61,-0.46 2.07,-0.38 2,-0.54 1.62,-0.38 2.07,-0.46 2.07,-0.47 1.61,-0.46 2,-0.46 2.07,-0.46 1.61,-0.46 2,-0.46 2.08,-0.46 1.61,-0.46 2.07,-0.46 2,-0.46 1.61,-0.46 2.07,-0.46 2.07,-0.46 1.61,-0.46 2,-0.46 2.07,-0.46 1.61,-0.46 2,-0.46 2.07,-0.46 1.61,-0.46 2.07,-0.39 2,-0.53 1.61,-0.39 2.07,-0.46 2.07,-0.46 1.61,-0.46 2,-0.46 2.07,-0.46 1.61,-0.46 2,-0.46 2.07,-0.46 1.61,-0.46 2,-0.46 2.08,-0.46 1.61,-0.46 2.07,-0.46 2,-0.46 1.61,-0.47 2.07,-0.45 2.07,-0.39 z M 276.84,34.38 q 0,9.9 0.81,19.8 0.81,9.9 0.72,19.34 0,7.37 2.46,7.36 h 9.36 q 4,0 8.79,-0.27 c 3.2,-0.18 6.35,-0.27 9.47,-0.27 h 1.92 l -10.51,87.72 -12.51,1.38 a 28.45,28.45 0 0 1 -8.28,-0.65 55.32,55.32 0 0 0 -8.68,-1.12 l -5.83,50.26 a 47.75,47.75 0 0 1 9,1.12 q 5.52,1.11 9.29,1.65 10,1.46 18,3 9.13,1.77 18.15,2.95 9.02,1.18 18.22,2.81 c 2.87,0.51 5.87,1 9,1.53 l 9.09,1.46 q 7.37,1.31 7.91,0 c 0.35,-0.9 1.15,-4.11 2.37,-9.63 q 1.23,-5.59 4.92,-19.34 3.69,-13.75 3.83,-17.95 l -46.42,-15.58 33,-94.54 q 6,0 12.05,-0.39 6.05,-0.39 12.36,-0.53 1.29,0 6.14,-0.12 4.85,-0.12 5.21,-1.27 0.08,-0.53 0.27,-6.44 0.19,-5.91 0.19,-7.29 0,-13 1.19,-27 1.19,-14 1.19,-27.48 z"
     id="path54"
     inkscape:connector-curvature="0" />
  <path
     d="m 468.18,1.76 0.38,-0.38 h 2.22 l 2.15,0.38 1.31,0.47 1.76,0.38 1.31,0.46 1.76,0.46 1.69,0.46 1.38,0.39 1.69,0.45 1.31,0.47 2.22,0.38 1.69,0.46 1.38,0.46 1.77,0.38 1.68,0.47 1.31,0.45 1.76,0.47 1.31,0.38 1.76,0.46 1.77,0.38 1.68,0.46 1.77,0.47 1.3,0.45 1.31,0.39 0.46,0.46 0.38,0.46 0.46,0.46 0.46,0.84 0.46,0.39 0.39,0.46 0.46,0.46 0.46,0.84 0.46,0.46 0.38,0.39 0.46,0.46 0.39,0.46 0.46,0.84 0.46,0.46 0.46,0.46 0.38,0.39 0.46,0.92 0.46,0.38 0.46,0.46 0.39,0.46 0.46,0.85 0.38,0.46 0.46,0.46 0.46,0.38 0.46,0.84 0.39,0.46 0.46,0.46 0.46,0.47 0.38,0.38 0.46,0.92 0.46,0.38 0.38,0.46 0.47,0.46 0.45,0.39 0.39,0.92 0.46,0.46 0.46,0.38 0.39,0.46 0.45,0.85 0.47,0.46 0.38,0.46 0.46,0.38 0.46,0.46 0.46,0.92 0.38,0.39 0.46,0.46 0.39,0.84 0.46,0.46 0.46,0.84 0.46,0.47 0.38,0.46 0.46,0.38 0.46,0.46 0.47,0.85 0.38,0.45 0.46,0.47 0.38,0.38 0.46,0.92 0.46,0.38 0.46,0.47 0.39,0.45 0.46,0.39 0.46,0.92 0.46,0.46 0.38,0.38 0.46,0.47 0.39,0.84 0.46,0.46 0.46,0.46 0.46,0.38 0.38,0.46 0.46,0.85 0.46,0.46 0.39,0.46 0.46,0.84 0.46,0.46 0.38,0.46 0.46,0.39 0.46,0.46 0.38,0.84 0.46,0.46 0.47,0.46 0.38,0.39 0.46,0.92 0.46,0.46 0.38,0.38 0.46,0.46 0.46,0.38 0.46,0.93 0.39,0.46 0.46,0.38 0.38,0.46 0.46,0.84 0.46,0.46 0.46,0.47 0.39,0.84 0.46,1.3 0.46,1.77 0.46,1.3 0.38,1.31 0.46,1.76 0.39,1.77 0.46,1.23 0.46,1.38 0.46,1.69 0.38,1.3 0.46,1.77 0.46,1.3 0.46,1.77 0.39,1.76 0.46,1.3 0.38,1.69 0.46,1.31 0.46,1.38 0.46,1.69 0.39,1.3 0.45,1.77 0.47,1.76 0.38,1.3 0.46,1.77 0.46,1.3 0.38,1.69 0.47,1.38 0.38,1.31 0.46,1.3 0.46,1.69 0.46,1.76 0.38,1.31 0.46,1.76 0.39,1.31 0.46,1.69 0.46,1.3 0.46,1.77 0.38,1.76 0.46,1.31 0.46,1.76 0.39,1.31 0.46,1.3 0.46,1.69 0.38,1.38 0.46,1.77 0.46,1.68 0.39,1.31 0.46,1.3 0.46,1.77 0.46,1.3 0.38,1.77 0.46,1.3 0.39,1.69 0.46,1.38 0.46,1.77 0.46,1.23 0.38,1.76 0.46,1.3 0.46,1.77 0.38,1.3 0.47,1.77 0.46,1.76 0.38,1.31 0.46,1.69 0.46,1.3 0.46,1.3 0.38,1.39 0.46,1.68 0.39,1.31 0.46,1.76 0.46,1.77 0.46,1.3 0.38,1.77 0.46,1.3 0.46,1.69 0.46,1.38 0.39,1.69 0.46,1.3 0.38,1.77 0.46,1.3 0.46,1.77 0.46,1.3 0.39,1.77 0.46,1.3 0.46,1.69 0.38,1.38 0.46,1.69 0.46,1.31 0.39,1.76 0.46,1.31 0.46,1.3 0.34,1.72 0.46,1.31 0.46,1.76 0.46,1.69 0.39,1.38 0.46,1.69 0.38,1.31 0.46,1.76 0.46,1.31 0.47,1.79 0.38,1.31 0.47,1.3 0.45,1.77 0.39,1.76 0.46,1.31 0.46,1.3 0.39,1.69 0.45,1.38 0.47,1.69 0.45,1.76 0.39,1.31 v 3.07 l -0.39,1.3 -0.45,0.46 -0.47,0.38 -0.45,0.46 -0.39,0.46 -0.46,0.47 -0.46,0.38 -0.39,0.84 -0.45,0.46 -0.47,0.46 -0.38,0.46 -0.46,0.39 -0.46,0.46 -0.46,0.38 -0.38,0.46 -0.46,0.46 -0.39,0.46 -0.46,0.39 h -3.91 l -2.69,-0.39 -2.15,-0.46 -2.61,-0.46 -2.22,-0.46 -2.15,-0.38 -2.61,-0.46 -2.61,-0.39 -2.22,-0.46 -2.61,-0.46 -2.61,-0.46 -2.15,-0.38 -2.15,-0.46 -1.38,-0.38 -0.84,-0.47 -1.31,-0.46 -1.3,-0.46 -1.31,-0.38 -1.3,-0.46 -1.31,-0.46 -1.38,-0.46 -1.23,-0.38 -0.92,-0.46 -1.3,-0.39 -1.31,-0.46 -1.3,-0.46 -1.3,-0.46 -1.31,-0.38 -1.3,-0.46 -1.31,-0.46 -0.84,-0.39 -1.77,-0.46 -1.38,-0.46 -1.22,-0.38 -1.39,-0.46 -1.3,-0.46 -1.31,-0.46 -0.84,-0.39 -1.3,-0.46 -1.31,-0.38 -1.31,-0.46 -1.3,-0.46 -1.3,-0.46 -1.31,-0.39 -1.38,-0.46 -0.84,-0.46 -1.31,-0.38 -1.3,-0.46 -1.31,-0.46 -1.3,-0.38 -1.31,-0.47 -0.84,-0.53 -0.08,1.84 -0.46,2.15 -0.38,1.76 -0.44,1.8 -0.38,0.46 -0.47,0.84 -0.46,0.46 -0.46,0.39 -0.84,0.46 -1.3,0.46 -0.85,0.38 -0.92,0.46 -1.3,0.46 -0.85,0.46 -1.3,0.39 -0.92,0.46 -0.85,0.38 -1.3,0.46 -0.8,0.48 -0.92,0.46 -1.3,0.38 -0.85,0.46 -1.3,0.46 -0.92,0.47 -0.85,0.38 -1.3,0.46 -0.92,0.38 -1.3,0.46 -0.85,0.46 -1.3,0.46 -0.85,0.39 -0.92,0.46 -1.3,0.38 -1.31,0.46 -0.46,0.46 -1.3,0.46 -1.31,0.39 -0.84,0.46 -0.92,0.46 -1.23,0.38 -0.92,0.46 -1.31,0.46 -0.92,0.39 -1.22,0.46 -0.93,0.46 -0.84,0.38 -1.3,0.46 -0.92,0.46 -1.31,0.46 -0.38,0.39 -1.38,0.45 -1.23,0.39 -0.92,0.46 -0.85,0.46 -1.3,0.46 -0.92,0.38 h -8.75 l -8.29,-0.38 -7.83,-0.46 -8.28,-0.46 -7.91,-0.46 -8.28,-0.39 -7.75,-0.45 -9.21,-0.39 -0.85,-0.46 -0.46,-0.46 -0.38,-0.46 -0.46,-0.84 -0.46,-0.46 -0.38,-0.39 -0.47,-0.92 -0.46,-0.38 -0.38,-0.92 -0.46,-0.39 -0.46,-0.92 -0.39,-0.46 -0.45,-0.38 -0.47,-0.85 -0.45,-0.46 -0.39,-0.92 -0.46,-0.38 -0.38,-0.84 -0.47,-0.47 -0.45,-0.46 -0.47,-0.84 -0.38,-0.46 -0.46,-0.92 -0.46,-0.38 -0.46,-0.85 -0.39,-0.46 -0.45,-0.46 -0.39,-0.84 v -2.23 l 0.39,-1.3 0.45,-0.85 0.39,-1.3 0.46,-1.31 0.46,-0.92 0.46,-1.3 0.38,-0.85 0.47,-0.84 0.45,-1.38 0.47,-1.23 0.38,-0.92 0.46,-1.3 0.39,-0.85 0.45,-1.3 0.47,-0.92 0.45,-1.31 0.39,-0.84 0.46,-0.92 0.46,-1.77 0.38,-0.84 0.46,-0.85 0.47,-1.3 0.38,-0.85 0.46,-1.38 0.46,-0.84 0.38,-1.31 0.46,-0.84 0.46,-1.3 0.39,-1.39 0.46,-0.84 0.46,-1.3 0.38,-0.85 0.46,-0.92 0.46,-1.3 0.46,-1.31 0.39,-0.84 0.46,-0.84 0.38,-1.39 0.46,-1.3 0.46,-0.85 0.46,-1.3 0.39,-0.92 0.46,-0.85 0.46,-1.3 0.46,-1.3 0.38,-0.85 0.46,-1.3 0.38,-1.31 0.46,-0.92 0.47,-1.3 0.46,-0.85 0.38,-0.92 0.46,-1.3 0.46,-1.31 0.46,-0.84 0.38,-1.31 0.46,-0.84 0.39,-1.38 0.46,-1.31 0.46,-0.84 0.46,-0.84 0.38,-0.92 0.46,-1.77 0.46,-0.84 0.39,-0.85 0.47,-1.34 0.46,-0.92 0.31,-1.31 0.45,-0.84 0.47,-1.31 0.38,-0.84 0.46,-1.38 0.46,-1.31 0.46,-0.84 0.39,-1.3 0.45,-0.92 0.39,-0.85 0.46,-1.3 0.46,-1.31 0.46,-0.92 0.38,-1.23 0.47,-0.92 0.45,-1.3 0.39,-0.85 0.46,-1.3 0.46,-0.92 0.38,-0.85 0.46,-1.76 0.47,-0.85 0.45,-0.92 0.39,-1.22 0.46,-0.93 0.38,-1.3 0.46,-1.3 0.46,-0.85 0.47,-0.92 0.38,-1.3 0.46,-1.31 0.46,-0.84 0.46,-1.38 0.38,-0.85 0.46,-0.84 0.39,-1.77 0.46,-0.84 0.46,-0.92 0.46,-1.31 0.38,-1.3 0.46,-0.84 0.46,-0.85 0.39,-1.38 0.46,-0.84 0.46,-1.31 0.38,-1.31 0.46,-0.84 0.46,-0.84 0.39,-1.31 0.46,-1.38 0.46,-0.84 0.46,-1.31 0.38,-0.84 0.46,-0.92 0.38,-1.31 0.46,-1.3 0.46,-0.84 0.47,-1.31 0.38,-0.92 0.46,-1.3 0.46,-1.31 0.38,-0.84 0.46,-0.92 0.46,-0.85 0.39,-1.76 0.46,-0.85 0.46,-0.84 0.46,-1.31 0.38,-0.92 0.46,-1.3 0.39,-1.3 0.46,-0.85 0.46,-0.92 0.46,-1.3 0.38,-1.31 0.46,-0.84 0.46,-1.31 0.46,-0.84 0.39,-1.39 0.46,-1.3 0.38,-0.84 0.46,-0.85 0.46,-1.38 0.46,-0.84 0.38,-1.31 0.47,-1.3 0.46,-0.84 0.38,-0.93 0.46,-1.3 0.46,-1.3 0.39,-0.85 0.45,-0.84 0.47,-1.38 0.38,-1.31 0.46,-0.84 0.46,-1.31 0.46,-0.92 0.39,-1.3 0.45,-1.31 0.39,-0.84 0.46,-0.92 0.46,-1.23 0.46,-0.92 0.38,-1.3 0.47,-1.31 0.45,-0.84 0.39,-0.92 0.46,-1.31 0.46,-1.31 0.38,-0.84 0.46,-0.92 0.47,-1.23 0.45,-0.92 0.39,-1.3 0.46,-1.31 0.46,-0.84 0.38,-0.92 0.46,-1.31 0.46,-1.3 0.39,-0.84 0.46,-1.39 0.46,-0.84 0.46,-1.3 0.38,-1.31 0.46,-0.84 0.39,-0.92 0.46,-1.31 0.46,-0.84 0.46,-1.31 0.38,-1.3 0.46,-0.92 0.46,-0.85 0.39,-1.3 0.46,-1.3 0.46,-0.93 0.38,-0.84 0.46,-1.3 0.46,-0.85 0.38,-1.29 0.46,-1.31 0.47,-0.92 z m -86.41,230.83 q 0,1.16 3.91,6.52 c 2.61,3.59 4.22,5.91 4.84,7 l 0.15,0.46 61.39,-25.33 10.9,-48.42 -4,-4.83 9.28,-45.2 24.33,9.44 a 47.92,47.92 0 0 0 1.26,8.75 c 0.85,4 1.47,7 1.88,9 q 2.08,10.52 3.38,18 1.38,8.82 3.11,17.91 1.73,9.09 3.49,17.77 c 0.31,1.43 0.58,2.93 0.81,4.49 0.23,1.56 0.49,3 0.8,4.41 0.41,2.15 0.65,3.7 0.73,4.64 0.08,0.94 1,1.73 2.72,2.34 q 3.84,1.54 8,2.92 4.16,1.38 8,2.61 7.07,2.37 16,5.91 a 114.83,114.83 0 0 0 15.92,5.14 l 7.29,-8 q -2.15,-4.31 -4.91,-14.66 -2.76,-10.35 -3.84,-15.88 -1.37,-6.42 -4.09,-15.27 -2.72,-8.85 -4.83,-15.46 -5.07,-15 -9.06,-30.73 -3.99,-15.73 -8.59,-31 -4.75,-15.35 -8.86,-30.73 -4.11,-15.38 -8.71,-30.66 c -0.77,-2.45 -1.5,-5 -2.19,-7.6 -0.69,-2.6 -1.42,-5.16 -2.19,-7.67 q -0.92,-2.69 -2.22,-7.83 -1.3,-5.14 -4,-6.06 -7,-1.84 -16.35,-3.76 a 63.31,63.31 0 0 1 -15,-4.68 41,41 0 0 1 -2.61,6.91 q -1.92,4.14 -3,7.13 -2.78,7.53 -5.45,14.2 -2.92,7.29 -5.68,14.31 -2.76,7.02 -5.52,14.08 -5.54,13.82 -11.63,28.17 -6.09,14.35 -10.8,28.38 -4.9,14.36 -11.28,28.39 -6.38,14.03 -11.2,28.08 -0.93,2.92 -4.53,11.67 -3.6,8.75 -7.52,18.34 -3.92,9.58 -7,17.57 -3.08,7.99 -3.13,9.23 z m 101.29,-170.2 4.68,41.51 -12.12,-3.91 z"
     id="path56"
     inkscape:connector-curvature="0" />
  <path
     d="m 676.21,1.61 1.38,-0.3 1.38,0.23 0.16,1.76 0.38,0.54 0.38,0.92 0.31,1 0.38,0.93 0.31,0.46 0.39,1 0.3,0.92 0.39,1 0.38,0.47 0.3,1 0.31,0.92 0.39,0.92 0.38,0.54 0.31,0.92 0.31,0.92 0.45,0.54 0.31,0.92 -0.07,0.92 1.38,-0.31 1.38,-0.22 1.84,-0.24 1.84,-0.23 1.84,-0.23 1.84,-0.23 1.85,-0.23 1.38,-0.23 1.84,-0.23 1.3,0.16 -0.15,1.3 -0.15,0.92 0.38,0.92 0.31,0.92 0.38,0.54 0.38,1 0.31,0.92 0.31,0.92 0.38,1 0.31,0.92 0.38,0.92 0.31,0.92 0.31,1 0.38,0.92 0.31,1 0.38,0.46 0.31,1 0.38,0.93 0.31,0.92 0.31,0.92 0.38,1 0.31,0.92 0.3,1 0.39,0.92 0.3,0.92 0.39,1 0.3,0.46 0.39,0.92 0.31,1 0.38,0.92 0.31,0.92 0.3,1 0.39,0.92 0.3,1 0.31,0.92 0.38,0.92 0.39,0.54 0.31,0.92 0.3,0.92 0.39,1 0.3,0.92 0.31,1 0.38,0.93 0.31,0.92 0.31,0.92 0.38,1 0.31,0.92 0.38,0.54 0.38,0.92 0.31,0.92 0.38,1 0.31,0.92 0.31,0.92 0.38,1 0.31,0.92 0.31,0.92 0.3,1 0.46,0.46 0.31,0.92 0.31,1 0.38,0.92 0.31,1 0.3,0.92 0.39,0.92 0.31,0.92 0.3,1 0.39,0.92 0.31,1 0.38,0.47 0.3,1 0.39,0.92 0.3,0.93 0.39,0.92 0.31,1 0.3,0.92 0.39,1 0.23,1.38 -0.16,1.31 -1.38,7.52 -1.45,7.52 -1.39,7.52 -1.38,7.9 -0.69,5.37 0.31,0.93 0.3,0.92 0.47,0.53 0.3,0.93 0.38,0.53 0.31,1 0.39,0.92 0.3,0.46 0.39,1 0.38,0.46 0.31,1 0.38,0.93 0.39,0.46 0.3,1 0.39,0.47 0.38,1 0.31,0.93 0.38,0.45 0.31,1 0.46,0.46 0.31,0.92 0.3,1 0.38,0.54 0.39,0.92 0.38,0.54 0.31,0.92 0.38,0.92 0.31,0.53 0.38,0.93 0.39,0.53 0.3,0.92 0.31,0.92 0.46,0.54 0.31,0.92 0.38,0.54 0.31,0.92 0.38,0.92 0.39,0.54 0.15,2.3 -1.46,15.19 -1,8 -0.61,1.3 -0.54,0.38 -0.53,0.85 -0.46,0.38 -0.54,0.38 -0.54,0.39 -0.46,0.38 -0.54,0.39 -0.53,0.84 -0.54,0.38 -0.46,0.39 -0.46,0.38 -0.54,0.46 -0.46,0.31 -0.61,0.92 -0.46,0.31 -0.54,0.38 -0.46,0.46 -0.54,0.38 -0.54,0.85 -0.53,0.38 -0.46,0.31 -0.54,0.46 -0.54,0.38 -0.46,0.39 -0.54,0.84 -0.53,0.38 -0.46,0.39 -0.54,0.38 -0.46,0.39 -0.54,0.38 -0.54,0.84 -0.53,0.39 -0.46,0.38 -0.54,0.38 -0.46,0.39 -0.54,0.84 -0.53,0.39 -0.46,0.45 -0.54,0.31 -0.54,0.39 -0.46,0.46 -0.61,0.76 -0.46,0.47 -0.54,0.38 -0.54,0.84 -0.53,0.39 -0.46,0.3 -0.54,0.92 -0.54,0.31 -0.54,0.85 -0.53,0.38 -0.54,0.84 -0.46,0.39 -0.62,0.84 -0.45,0.38 -0.54,0.85 -0.54,0.38 -0.46,0.46 -0.61,0.77 -0.47,0.38 -0.61,0.85 -0.46,0.38 -0.54,0.84 -0.53,0.39 -0.54,0.84 -0.54,0.39 -0.53,0.84 -0.54,0.39 -0.46,0.38 -0.54,0.84 -0.54,0.39 -0.53,0.84 -0.54,0.39 -0.54,0.84 -0.54,0.38 -0.53,0.85 -0.54,0.38 -0.54,0.84 -0.46,0.39 -0.53,0.38 -0.54,0.85 -0.54,0.38 -0.54,0.84 -0.46,0.39 -0.53,0.84 -0.54,0.38 -0.54,0.85 -0.53,0.38 -0.54,0.85 -0.54,0.38 -0.46,0.38 -0.61,0.85 -0.46,0.38 -0.54,0.85 -0.54,0.38 -0.92,0.31 -0.54,0.38 -0.46,0.39 -0.53,0.45 -0.46,0.39 -0.54,0.31 -0.46,0.46 -0.54,0.38 -0.53,0.38 -0.47,0.39 -0.53,0.38 -0.46,0.38 -0.54,0.39 -0.46,0.38 -0.54,0.39 -0.46,0.38 -0.54,0.46 -0.53,0.31 -0.46,0.38 -0.54,0.46 -0.46,0.39 -0.92,0.3 -0.54,0.38 -0.54,0.39 -0.46,0.38 -0.53,0.39 -0.46,0.45 -0.54,0.31 -0.46,0.46 -0.54,0.39 -0.46,0.38 -0.54,0.38 -0.46,0.39 -0.53,0.38 -0.47,0.38 -0.53,0.39 -0.46,0.38 -0.54,0.39 -0.46,0.38 -0.54,0.38 -0.53,0.39 -0.47,0.46 -0.92,0.3 -0.53,0.39 -0.54,0.38 -0.46,0.39 -0.54,0.38 -0.46,0.38 -0.54,0.46 -0.46,0.31 -0.53,0.38 -0.46,0.47 -0.54,0.38 -0.54,0.38 -0.46,0.39 -0.54,0.38 -0.46,0.38 -0.53,0.39 -0.46,0.38 -0.54,0.39 -0.46,0.38 -0.54,0.38 -0.54,0.39 -1.38,0.3 -1.76,-0.23 -1.23,-0.61 -0.84,-0.54 -0.85,-0.54 -1.3,-0.69 -0.84,-0.54 -0.85,-0.53 -1.23,-0.61 -0.84,-0.54 -0.85,-0.54 -1.3,-0.69 -0.84,-0.54 -0.77,-0.54 -1.31,-0.61 -0.84,-0.54 -0.85,-0.53 -1.3,-0.69 -0.85,-0.54 -0.76,-0.54 -1.31,-0.61 -0.84,-0.62 -0.84,-0.46 -1.31,-0.69 -0.84,-0.53 -0.77,-0.54 -1.31,-0.61 -0.84,-0.62 -0.84,-0.54 -1.31,-0.61 -0.84,-0.54 -0.85,-0.53 -1.22,-0.72 -0.85,-0.61 -0.84,-0.54 -1.31,-0.61 -0.76,-0.54 -0.92,-0.54 -1.23,-0.61 -0.85,-0.62 -0.84,-0.53 -1.3,-0.62 -0.77,-0.53 -0.92,-0.54 -1.23,-0.61 -0.84,-0.62 -0.85,-0.54 -0.84,-0.53 -0.85,-0.54 -0.84,-0.61 -1.23,-0.62 -0.84,-0.53 -0.85,-0.54 -0.84,-0.54 -0.84,-0.61 -0.85,-0.54 -0.84,-0.54 -0.77,-0.54 -0.85,-0.61 -0.76,-0.54 -0.85,-0.53 -0.84,-0.54 -0.85,-0.61 -0.84,-0.54 -0.84,-0.54 -0.85,-0.61 -0.84,-0.54 -0.77,-0.54 -0.84,-0.53 -1.31,-0.62 -0.84,-0.61 -0.85,-0.54 -0.84,-0.53 -0.84,-0.62 -0.85,-0.54 -0.77,-0.53 -0.84,-0.54 -0.84,-0.61 -0.85,-0.54 -0.84,-0.54 -0.84,-0.54 -0.85,-0.61 -0.77,-0.54 -0.92,-0.53 -0.77,-0.54 -0.84,-0.62 -0.84,-0.53 -0.87,-0.54 -0.84,-0.54 0.38,-2.68 0.69,-2.23 0.69,-2.15 0.77,-2.14 0.77,-2.62 0.69,-2.14 0.77,-2.23 0.76,-2.61 0.77,-2.15 0.69,-2.22 0.77,-2.61 0.77,-2.15 0.69,-2.15 0.69,-2.14 0.84,-2.69 0.69,-2.15 0.77,-2.15 0.77,-2.61 0.77,-2.23 0.68,-2.14 0.69,-2.15 0.85,-2.61 0.69,-2.23 0.77,-2.14 0.61,-1.77 0.92,-0.3 1.38,0.15 0.08,-0.85 -0.84,-0.15 -0.39,-0.46 -0.84,-0.61 -0.39,-0.46 -0.38,-0.47 -0.84,-0.61 -0.39,-0.46 -0.84,-0.61 -0.39,-0.46 -0.84,-0.62 -0.38,-0.46 -0.85,-0.54 -0.38,-0.53 -0.84,-0.54 -0.39,-0.54 -0.84,-0.54 -0.39,-0.45 -0.38,-0.54 -0.84,-0.54 -0.39,-0.54 -0.84,-0.53 -0.39,-0.46 -0.84,-0.62 -0.38,-0.46 -0.85,-0.54 -0.84,-0.61 -0.39,-0.46 -0.3,-1 -0.46,-0.46 -0.31,-0.92 -0.38,-0.54 -0.31,-0.92 -0.38,-0.53 -0.39,-0.93 -0.38,-0.53 -0.31,-0.92 -0.3,-1 -0.39,-0.46 -0.38,-0.92 -0.39,-0.54 -0.3,-0.92 -0.39,-0.54 -0.38,-0.92 -0.39,-0.53 -0.3,-0.93 -0.38,-0.53 -0.39,-0.92 -0.38,-0.46 -0.31,-1 -0.38,-0.46 -0.31,-0.92 -0.46,-0.54 -0.31,-0.92 -0.38,-0.54 -0.31,-0.92 -0.46,-0.54 -0.3,-0.92 -0.39,-0.53 -0.3,-0.92 -0.39,-0.54 -0.38,-0.92 -0.31,-0.92 -0.38,-0.54 -0.31,-0.92 -0.38,-0.46 -0.39,-1 -0.38,-0.46 -0.31,-1 -0.38,-0.46 -0.38,-0.92 -0.39,-0.54 -0.31,-0.92 -0.38,-0.53 -0.38,-0.92 -0.31,-0.54 -0.38,-0.92 -0.39,-0.46 -0.31,-1 -0.38,-0.46 0.16,-1.38 0.45,-0.38 0.54,-0.39 0.46,-0.38 0.54,-0.39 0.54,-0.84 0.46,-0.38 0.53,-0.39 0.54,-0.38 0.54,-0.84 0.54,-0.39 0.46,-0.39 0.54,-0.38 0.53,-0.84 0.54,-0.39 0.46,-0.38 0.54,-0.46 0.53,-0.77 0.46,-0.46 0.54,-0.31 0.46,-0.38 0.61,-0.84 0.47,-0.39 0.53,-0.46 0.46,-0.38 0.62,-0.84 0.46,-0.39 0.53,-0.38 0.46,-0.38 0.54,-0.39 0.54,-0.84 0.46,-0.39 0.54,-0.38 0.53,-0.38 0.54,-0.85 0.46,-0.38 0.54,-0.38 0.54,-0.39 0.53,-0.84 0.46,-0.39 0.54,-0.38 0.46,-0.38 0.61,-0.85 0.47,-0.38 0.53,-0.38 0.46,-0.39 0.62,-0.84 0.46,-0.39 0.53,-0.46 0.47,-0.3 0.53,-0.39 0.54,-0.84 0.46,-0.38 0.54,-0.47 0.46,-0.38 0.61,-0.85 0.46,-0.38 0.54,-0.3 0.46,-0.47 0.61,-0.76 0.46,-0.46 0.54,-0.39 0.54,-0.38 0.46,-0.85 0.54,-0.38 0.53,-0.38 0.46,-0.39 0.62,-0.84 0.46,-0.38 0.53,-0.39 0.46,-0.38 0.54,-0.38 0.54,-0.85 0.53,-0.38 0.47,-0.39 0.53,-0.38 0.54,-0.84 0.46,-0.39 0.46,-0.38 0.46,-0.38 0.62,-0.85 0.46,-0.38 0.53,-0.39 0.46,-0.46 0.62,-0.76 0.46,-0.39 0.54,-0.38 0.45,-0.38 0.54,-0.85 0.54,-0.38 0.54,-0.46 0.46,-0.39 0.54,-0.84 0.53,-0.38 0.54,-0.31 0.46,-0.46 0.54,-0.39 0.53,-0.84 0.47,-0.38 0.53,-0.39 0.46,-0.38 0.62,-0.84 0.46,-0.39 0.53,-0.38 0.47,-0.39 0.61,-0.84 0.46,-0.39 0.54,-0.38 0.46,-0.38 0.53,-0.85 0.54,-0.38 0.46,-0.38 0.54,-0.39 0.53,-0.84 0.54,-0.39 0.46,-0.38 0.54,-0.38 0.54,-0.39 0.53,-0.84 0.46,-0.38 0.54,-0.39 0.54,-0.38 0.53,-0.85 0.47,-0.38 0.53,-0.38 0.46,-0.46 0.62,-0.77 0.46,-0.46 0.53,-0.38 0.47,-0.39 0.61,-0.84 0.46,-0.31 0.54,-0.46 0.46,-0.38 0.53,-0.85 0.54,-0.38 0.46,-0.38 0.54,-0.39 0.54,-0.84 0.54,-0.38 0.45,-0.39 0.54,-0.38 0.46,-0.39 0.62,-0.84 0.46,-0.38 0.53,-0.39 0.46,-0.38 0.54,-0.84 0.54,-0.39 0.54,-0.38 0.46,-0.39 0.61,-0.84 0.46,-0.38 0.54,-0.39 0.46,-0.38 0.53,-0.84 0.54,-0.39 0.46,-0.38 0.54,-0.46 0.54,-0.77 0.53,-0.39 0.46,-0.38 0.55,-0.54 0.46,-0.38 0.62,-0.77 0.45,-0.46 0.54,-0.38 0.46,-0.39 0.54,-0.84 0.54,-0.39 0.46,-0.38 0.53,-0.38 0.54,-0.85 0.54,-0.38 0.54,-0.38 0.46,-0.39 0.54,-0.38 1.37,-0.23 1.39,-0.31 1.84,-0.23 1.38,-0.31 1.38,-0.23 1.84,-0.23 1.38,-0.31 1.46,-0.3 1.38,-0.23 1.85,-0.23 1.38,-0.23 1.38,-0.31 1.84,-0.23 1.38,-0.31 1.38,-0.23 1.84,-0.22 1.39,-0.31 1.45,-0.23 1.77,-0.23 1.45,-0.31 1.39,-0.23 1.38,-0.31 z M 555.27,96.38 q 0,0.17 7.91,16.08 7.91,15.91 9,18 l 91,-0.61 q -0.23,0.47 -5.91,4.53 -5.68,4.06 -12.39,8.78 -6.72,4.73 -12.36,8.6 -5.64,3.87 -5.63,3.8 -1.54,-0.15 -3.19,-3.95 c -1.1,-2.54 -2,-3.85 -2.57,-4 q -2.07,-0.22 -18.11,2.07 -16.04,2.29 -17.19,3 l -16.5,51.1 32.08,21 a 51.75,51.75 0 0 0 6.87,-4.69 q 4.71,-3.6 7,-5.44 3.3,-2.54 6.79,-5.11 3.49,-2.57 7,-5.18 2.06,-1.6 7.25,-5.06 a 41.36,41.36 0 0 0 6.63,-5.07 q 5.37,-6 11.51,-13 12.9,-14.81 23.41,-25.78 a 125,125 0 0 1 12.97,-11.61 91.47,91.47 0 0 0 12.51,-11.7 c 0.36,-3.22 0.64,-6.23 0.84,-9 0.2,-2.77 0.51,-5.75 0.92,-8.87 a 72.41,72.41 0 0 0 0.81,-8.63 q -0.12,-1.11 -7.87,-1 a 69.61,69.61 0 0 1 -8.59,-0.08 l -8.44,-0.53 q -4.14,-0.24 -8.79,-0.27 a 72.54,72.54 0 0 1 -8.39,-0.45 131,131 0 0 0 -17.23,-0.73 103.83,103.83 0 0 1 -17,-1 124.37,124.37 0 0 0 -17,-0.73 108.6,108.6 0 0 1 -17.34,-1 l 60.78,-42 -4.91,31.61 33.37,-3.6 11.9,-65.38 -18.88,2.45 -1.92,-17 a 51.11,51.11 0 0 0 -10.35,1.39 q -7.07,1.46 -10.75,2 c -1.84,0.31 -3.61,0.61 -5.29,0.92 -1.68,0.31 -3.38,0.56 -5.07,0.77 a 6.66,6.66 0 0 0 -4,2.45 40.76,40.76 0 0 1 -3.41,3.53 q -7,6.3 -13.81,13.09 -6.81,6.79 -13.48,13.43 -2.07,2.07 -10.74,10.32 -8.67,8.25 -18.31,17.48 -9.63,9.24 -17.34,16.8 -7.71,7.56 -7.79,8.27 z"
     id="path58"
     inkscape:connector-curvature="0" />
  <text
     class="cls-7"
     id="text74"
     style="font-size:77.19999695px;font-family:FriendlySchoolmates, 'Friendly Schoolmates';fill:#ffffff;stroke:#000000;stroke-width:2px;stroke-miterlimit:10;fill-opacity:1;"
     x="178.82001"
     y="336.84">
    <tspan
       class="cls-8"
       id="tspan60"
       style="letter-spacing:-0.02em;fill:#ffffff;fill-opacity:1;">C</tspan>
    <tspan
       x="214.25"
       y="336.84"
       id="tspan62"
       style="fill:#ffffff;fill-opacity:1;">O</tspan>
    <tspan
       class="cls-9"
       x="256.73999"
       y="336.84"
       id="tspan64"
       style="letter-spacing:-0.01em;fill:#ffffff;fill-opacity:1;">N</tspan>
    <tspan
       class="cls-10"
       x="298.01999"
       y="336.84"
       id="tspan66"
       style="letter-spacing:0em;fill:#ffffff;fill-opacity:1;">SCIE</tspan>
    <tspan
       class="cls-11"
       x="420.23001"
       y="336.84"
       id="tspan68"
       style="letter-spacing:-0.04em;fill:#ffffff;fill-opacity:1;">N</tspan>
    <tspan
       class="cls-12"
       x="459.70001"
       y="336.84"
       id="tspan70"
       style="letter-spacing:0.01em;fill:#ffffff;fill-opacity:1;">T</tspan>
    <tspan
       x="489.55002"
       y="336.84"
       id="tspan72"
       style="fill:#ffffff;fill-opacity:1;">ES</tspan>
  </text>
  <polygon
     class="cls-5"
     points="227.5,334.5 199.5,331.5 200.5,296.5 225.5,298.5 "
     id="polygon76"
     style="fill:#4a6ed3;stroke:#000000;stroke-miterlimit:10"
     transform="translate(-38.16,-269.69)" />
  <polygon
     points="214,284 229,300 199,297 "
     id="polygon78"
     transform="translate(-38.16,-269.69)" />
  <rect
     x="169.84"
     y="39.810001"
     width="8.5"
     height="3"
     id="rect80" />
  <polygon
     class="cls-13"
     points="288.25,347.5 293,310 263.43,307.03 258,353 277,357.09 "
     id="polygon82"
     style="fill:#e9a400;stroke:#000000;stroke-miterlimit:10"
     transform="translate(-38.16,-269.69)" />
  <polygon
     class="cls-14"
     points="400.5,506.5 357.5,496.5 360.51,451.02 412.5,466.5 "
     id="polygon84"
     style="fill:#e87089;stroke:#000000;stroke-miterlimit:10"
     transform="translate(-38.16,-269.69)" />
  <polygon
     points="357.07,455.51 365.96,433.1 413,455 413,470 "
     id="polygon86"
     transform="translate(-38.16,-269.69)" />
  <rect
     x="-352.64001"
     y="-231.51999"
     width="15.14"
     height="21.51"
     transform="scale(-1)"
     id="rect88" />
  <polygon
     class="cls-2"
     points="330.78,467.91 323,439 339,436 343,466 "
     id="polygon90"
     style="fill:#dd2671;stroke:#000000;stroke-miterlimit:10"
     transform="translate(-38.16,-269.69)" />
  <polygon
     class="cls-2"
     points="303,478 319,481 309,437 "
     id="polygon92"
     style="fill:#dd2671;stroke:#000000;stroke-miterlimit:10"
     transform="translate(-38.16,-269.69)" />
  <rect
     x="271.84"
     y="174.31"
     width="20"
     height="4"
     id="rect94" />
  <polygon
     class="cls-13"
     points="336.5,493.8 362.5,497.5 366.5,463.68 329.5,473.19 "
     id="polygon96"
     style="fill:#e9a400;stroke:#000000;stroke-miterlimit:10"
     transform="translate(-38.16,-269.69)" />
  <polygon
     points="355.5,491.16 344.5,491.16 343.5,478.48 355.5,478.48 "
     id="polygon98"
     transform="translate(-38.16,-269.69)" />
  <polygon
     points="369,464.21 362.55,451 332,466.19 329,472.67 "
     id="polygon100"
     transform="translate(-38.16,-269.69)" />
  <polygon
     class="cls-5"
     points="514,369 520,331 527,374 532,328 489,324 475,361 "
     id="polygon102"
     style="fill:#4a6ed3;stroke:#000000;stroke-miterlimit:10"
     transform="translate(-38.16,-269.69)" />
  <polygon
     class="cls-13"
     points="563,330 489,328 509,276 544,285 "
     id="polygon104"
     style="fill:#e9a400;stroke:#000000;stroke-miterlimit:10"
     transform="translate(-38.16,-269.69)" />
  <polygon
     class="cls-6"
     points="526.5,373.5 528.5,337.5 559.5,340.5 566.5,368.5 "
     id="polygon106"
     style="fill:#daff15;stroke:#000000;stroke-miterlimit:10"
     transform="translate(-38.16,-269.69)" />
  <polygon
     points="524,340.18 559,340 555,321 525.81,325.74 "
     id="polygon108"
     transform="translate(-38.16,-269.69)" />
  <polygon
     points="550.11,368.73 539.87,370.56 537.89,356 546.49,356 "
     id="polygon110"
     transform="translate(-38.16,-269.69)" />
  <polygon
     class="cls-3"
     points="511.5,343.71 513.51,368.48 480.01,362.4 480.46,353.55 480.66,349.64 "
     id="polygon112"
     style="fill:#dd2600;stroke:#000000;stroke-miterlimit:10"
     transform="translate(-38.16,-269.69)" />
  <polygon
     points="512.17,354.02 480,355 481,350 511.89,343.71 "
     id="polygon114"
     transform="translate(-38.16,-269.69)" />
  <rect
     x="452.85876"
     y="86.873039"
     width="3.78"
     height="1.96"
     transform="rotate(-0.07)"
     id="rect116" />
  <rect
     x="465.26874"
     y="92.793022"
     width="1.08"
     height="4.9099998"
     transform="rotate(-0.07)"
     id="rect118" />
  <path
     class="cls-4"
     d="m 450.57,80.31 3.82,-21.75 27.87,3 c 0,0 -0.55,15.68 -2.19,16.7 -1.64,1.02 -29.5,2.05 -29.5,2.05 z"
     id="path120"
     inkscape:connector-curvature="0"
     style="fill:#33d36c;stroke:#000000;stroke-miterlimit:10" />
  <path
     d="m 450.57,58.56 c 0,0 36.6,6.57 35.51,4.55 -1.09,-2.02 -22.4,-25.8 -22.4,-25.8 z"
     id="path122"
     inkscape:connector-curvature="0" />
  <rect
     x="460.29001"
     y="63.700016"
     width="8.0500002"
     height="7.4499998"
     id="rect124" />
  <polygon
     points="515.39,366.88 513.46,370.41 512.5,373.94 530,383 524.07,361 "
     id="polygon126"
     transform="translate(-38.16,-269.69)" />
  <polygon
     class="cls-13"
     points="624.5,421.5 661.5,417.5 672.5,425.5 670.36,449 641.14,439 621.14,449.82 617.5,439.5 "
     id="polygon128"
     style="fill:#e9a400;stroke:#000000;stroke-miterlimit:10"
     transform="translate(-38.16,-269.69)" />
  <polygon
     class="cls-13"
     points="624.5,417.5 608.5,404.5 616.5,432.5 "
     id="polygon130"
     style="fill:#e9a400;stroke:#000000;stroke-miterlimit:10"
     transform="translate(-38.16,-269.69)" />
  <rect
     x="579.34003"
     y="148.81"
     width="16"
     height="9"
     id="rect132" />
  <rect
     x="131.34"
     y="145.81"
     width="10"
     height="17"
     id="rect134" />
  <polygon
     class="cls-15"
     points="59,371 68,370 84,300 139,273 174,358 140,376 109,336 99.89,475 48.5,453.06 "
     id="polygon136"
     style="opacity:1;fill:#ffffff;fill-opacity:1"
     transform="translate(-38.16,-269.69)" />
  <polygon
     class="cls-4"
     points="161,396 139,419 160,478 191.5,418.5 "
     id="polygon138"
     style="fill:#33d36c;stroke:#000000;stroke-miterlimit:10"
     transform="translate(-38.16,-269.69)" />
  <rect
     x="114.34"
     y="145.81"
     width="9"
     height="9"
     id="rect140" />
  <polygon
     class="cls-5"
     points="134,520 160,478 143,416 96,459 "
     id="polygon142"
     style="fill:#4a6ed3;stroke:#000000;stroke-miterlimit:10"
     transform="translate(-38.16,-269.69)" />
  <path
     class="cls-16"
     d="m 91.12,208.31 3.85,-31.62 28,4.41 c 0,0 -0.55,22.8 -2.2,24.27 -1.65,1.47 -29.65,2.94 -29.65,2.94 z"
     id="path144"
     inkscape:connector-curvature="0"
     style="fill:#e93400;stroke:#000000;stroke-miterlimit:10" />
  <path
     d="m 91.12,176.69 c 0,0 36.83,9.56 35.72,6.62 -1.11,-2.94 -22.54,-37.5 -22.54,-37.5 z"
     id="path146"
     inkscape:connector-curvature="0" />
  <rect
     x="100.89999"
     y="184.16"
     width="8.0900002"
     height="10.83"
     id="rect148" />
  <rect
     x="-104.84"
     y="-226.31"
     width="11"
     height="11"
     transform="scale(-1)"
     id="rect150" />
  <path
     class="cls-15"
     d="m 185.34,227.81 h -34 l 32,-57 v -3 l -33,-26 v -7 l 19,-11 3,-3 -14,-33 3,-2 v -23 l 28,2 2,23 28.5,-5.5 6.5,13.5 29.5,4.5 15.5,63.5 h -4 l -5,43 0.5,0.5 c 0,0 -36.5,-5.5 -39.5,-7.5 -3,-2 -4,-74 -4,-74 l -27,-14 c 0,0 4,99 1,102 -3,3 -8,14 -8,14 z"
     id="path152"
     inkscape:connector-curvature="0"
     style="opacity:1;fill:#ffffff;fill-opacity:1" />
  <path
     class="cls-16"
     d="m 220.34,96.81 5,-38 26,1 c 0,0 -1,21.12 -2,22 -1,0.88 -29,15 -29,15 z"
     id="path154"
     inkscape:connector-curvature="0"
     style="fill:#e93400;stroke:#000000;stroke-miterlimit:10" />
  <path
     d="m 222.84,60.31 c 0,0 32.66,0.76 32,-1 -0.66,-1.76 -18.07,-20 -18.07,-20 z"
     id="path156"
     inkscape:connector-curvature="0" />
  <rect
     x="230.72"
     y="63.320011"
     width="4.8600001"
     height="6.5"
     id="rect158" />
  <polygon
     class="cls-17"
     points="316.5,343.5 315.5,304.5 437.5,274.5 434.5,342.5 398.5,345.5 377.38,412 340.5,411.5 348.5,349.5 318.5,351.5 "
     id="polygon160"
     style="opacity:1;fill:#ffffff;fill-opacity:1;stroke:#000000;stroke-miterlimit:10"
     transform="translate(-38.16,-269.69)" />
  <polygon
     class="cls-4"
     points="355.29,458.56 330.5,469.5 340.58,412 380.5,416.99 "
     id="polygon162"
     style="fill:#33d36c;stroke:#000000;stroke-miterlimit:10"
     transform="translate(-38.16,-269.69)" />
  <rect
     x="308.34"
     y="149.25"
     width="14"
     height="7.0900002"
     id="rect164" />
  <polyline
     class="cls-18"
     points="340.5 462.5 342.83 439.18 356 441.95 354.49 460.75"
     id="polyline166"
     style="stroke:#33d36c;stroke-miterlimit:10"
     transform="translate(-38.16,-269.69)" />
  <polygon
     points="363.54,389.5 381,420 341,412 "
     id="polygon168"
     transform="translate(-38.16,-269.69)" />
  <polygon
     class="cls-15"
     points="506.5,392.5 496.5,438.5 501.5,443.5 490.5,490.5 428.5,516.5 436.5,483.5 435.5,480.5 430.5,472.5 475.5,360.5 514,369 512.5,373.5 530.5,382.5 526.5,373.5 566.5,368.5 604.5,497.5 596.5,505.5 546.5,488.5 530.5,401.5 "
     id="polygon170"
     style="opacity:1;fill:#ffffff;fill-opacity:1"
     transform="translate(-38.16,-269.69)" />
  <path
     class="cls-19"
     d="m 689.65,144.81 c 0,0 13.69,-12 13.69,-13 0,-1 3.5,-27.5 3.5,-27.5 l -112,-4 61.5,-42.5 -5,32 33,-4 12,-66 -19,3 -2,-17 -33,6 -85,82 c 0,0 10,35 15,36 5,1 91,0 91,0 l -3.64,2.85 5.71,2.65 5.93,-8.5 z"
     id="path172"
     inkscape:connector-curvature="0"
     style="opacity:1;fill:#ffffff;fill-opacity:1" />
  <polygon
     class="cls-4"
     points="706.5,406.5 692.5,400.5 670.36,421.71 702.5,425.5 "
     id="polygon174"
     style="fill:#33d36c;stroke:#000000;stroke-miterlimit:10"
     transform="translate(-38.16,-269.69)" />
  <path
     class="cls-2"
     d="m 659.7,158.76 3.35,-16 24.42,2.24 c 0,0 -0.48,11.53 -1.92,12.28 -1.44,0.75 -25.85,1.48 -25.85,1.48 z"
     id="path176"
     inkscape:connector-curvature="0"
     style="fill:#dd2671;stroke:#000000;stroke-miterlimit:10" />
  <path
     d="m 659.7,142.75 c 0,0 32.08,4.84 31.12,3.35 -0.96,-1.49 -19.63,-19 -19.63,-19 z"
     id="path178"
     inkscape:connector-curvature="0" />
  <rect
     x="668.22003"
     y="146.53"
     width="7.0500002"
     height="5.48"
     id="rect180" />
  <polygon
     class="cls-13"
     points="83,459 85,459 63,512 111,518 102.05,459 "
     id="polygon182"
     style="fill:#e9a400;stroke:#000000;stroke-miterlimit:10"
     transform="translate(-38.16,-269.69)" />
  <polygon
     class="cls-6"
     points="58.54,508 54.24,464.23 87.35,464.23 99,500.58 "
     id="polygon184"
     style="fill:#daff15;stroke:#000000;stroke-miterlimit:10"
     transform="translate(-38.16,-269.69)" />
  <polygon
     points="47.5,464.23 93.48,464.23 87.35,439 49.95,444.19 "
     id="polygon186"
     transform="translate(-38.16,-269.69)" />
  <polygon
     points="81.53,503.78 67.66,506.33 64.97,486.11 76.62,486.11 "
     id="polygon188"
     transform="translate(-38.16,-269.69)" />
  <path
     d="m 45.34,202.37 c 18.37,-12.78 30.35,-21.56 30.35,-21.56 l 27.15,21.56 z"
     id="path190"
     inkscape:connector-curvature="0" />
  <polygon
     class="cls-2"
     points="83.5,511.19 95.48,472.06 117.84,472.06 133.5,519.5 "
     id="polygon192"
     style="fill:#dd2671;stroke:#000000;stroke-miterlimit:10"
     transform="translate(-38.16,-269.69)" />
  <rect
     x="63.34"
     y="214.81"
     width="11"
     height="27"
     id="rect194" />
  <path
     class="cls-4"
     d="m 4.34,237.37 c 0,-1.22 3.84,-26.84 3.84,-26.84 l 13.66,-1.22 3,30.5 z"
     id="path196"
     inkscape:connector-curvature="0"
     style="fill:#33d36c;stroke:#000000;stroke-miterlimit:10" />
  <polygon
     points="64.5,480.5 45.5,480.5 46.5,462 62.5,465.7 69.5,466.93 "
     id="polygon198"
     transform="translate(-38.16,-269.69)" />
  <rect
     x="14.34"
     y="227.81"
     width="5"
     height="10"
     id="rect200" />
  <polygon
     class="cls-2"
     points="496.5,327.5 509.5,295.5 546.5,296.5 553.43,321.26 "
     id="polygon202"
     style="fill:#dd2671;stroke:#000000;stroke-miterlimit:10"
     transform="translate(-38.16,-269.69)" />
  <polygon
     points="536,323.59 524,324 524,312 535,312 "
     id="polygon204"
     transform="translate(-38.16,-269.69)" />
  <path
     d="m 464.84,28.31 c 16.15,-11.24 24,-16 24,-16 l 22,16 z"
     id="path206"
     inkscape:connector-curvature="0" />
</svg>
